# Blender 4.5.2 LTS
# www.blender.org
mtllib Bolidestub.mtl
o Icosphere
v -0.141848 2.535280 -0.101142
v 0.590409 2.461593 -0.179523
v 0.055151 2.501067 -0.432934
v 0.090900 4.538136 0.209427
v -0.217716 4.672088 0.424816
v -0.068512 4.653486 -0.236689
v -0.035097 3.750720 -0.340314
v 0.692359 3.786151 -0.158454
v -0.597214 0.995813 -0.568366
v -0.205975 3.803609 0.081865
v 0.651447 3.789237 0.397157
v 0.405279 3.697708 -0.509983
v 0.049530 4.665044 0.593978
v 0.120468 0.851804 -0.508988
v -0.712881 0.976118 -0.188043
v 0.431663 2.461133 -0.462408
v 0.114510 2.290313 0.230881
v 0.148889 0.870413 -0.044763
v -0.211534 0.845058 -0.773957
v -0.249571 0.905527 0.070071
v -1.710051 -0.213973 0.408046
v -1.567495 -0.165311 -0.993669
v -0.668879 -0.246908 -1.341033
v 1.318706 -0.064087 -0.997266
v -0.946421 -6.193049 0.111935
v 1.682681 -0.039130 0.724097
v -0.082640 -0.091912 -1.823625
v 0.042844 -0.106101 1.289211
v -0.855170 -0.403137 0.787744
v 0.973248 -6.369327 -0.740392
v 2.013487 -5.922139 -1.261528
v -0.717267 -6.115635 -1.244182
v -2.639863 -2.879922 -1.858781
v -0.907312 -2.933864 -2.540066
v 3.042413 -2.506387 -1.836252
v 3.429154 -2.706781 -0.326644
v -3.073653 -3.048980 0.997322
v 3.663872 -2.435631 1.534447
v 1.500451 -2.738833 -2.887320
v 0.260814 -2.636668 -3.457059
v 0.541569 -2.814841 2.759388
v -1.167529 -3.277869 1.720570
v 2.305652 -5.882656 0.356038
v 2.217942 -6.023056 -0.449201
v 0.774574 -6.021994 -2.059512
v 0.889307 -6.082660 0.960633
v 0.000576 -6.283463 0.477638
v 1.053059 -6.350237 -0.422386
v -0.551371 4.824203 0.296781
v 0.501340 4.585471 0.510850
v -0.534073 4.665504 -0.450254
v 0.207708 4.358478 -0.562813
v 0.559905 4.385904 -0.160142
v -0.745604 4.892077 0.008610
vn -0.1563 0.6741 0.7220
vn -0.2995 -0.0920 0.9497
vn 0.5847 0.6252 0.5169
vn -0.9898 0.0984 0.1027
vn -0.1897 0.4099 0.8922
vn 0.9774 -0.1633 -0.1341
vn 0.6914 0.5118 0.5099
vn 0.7944 0.4055 -0.4522
vn 0.4373 -0.0045 -0.8993
vn 0.0795 0.5105 -0.8562
vn -0.6240 0.4961 -0.6038
vn 0.7337 -0.0427 0.6781
vn -0.4604 0.4654 -0.7559
vn -0.6708 0.5494 -0.4981
vn 0.5742 0.6991 -0.4261
vn -0.4075 0.4472 0.7962
vn -0.1659 0.5940 0.7871
vn -0.1408 0.6210 -0.7710
vn -0.7940 -0.0105 -0.6078
vn -0.6820 0.5635 0.4661
vn -0.8742 -0.0568 0.4823
vn -0.0927 0.1033 -0.9903
vn -0.4808 -0.0178 -0.8766
vn -0.4910 -0.7568 -0.4315
vn -0.4201 -0.1300 0.8981
vn -0.5292 -0.7993 0.2847
vn -0.1909 -0.8612 0.4711
vn 0.8589 0.1383 0.4932
vn 0.6451 -0.6741 0.3597
vn 0.6707 -0.7350 -0.0997
vn 0.4834 0.0989 -0.8698
vn 0.0706 -0.6951 -0.7154
vn -0.0608 -0.0004 0.9981
vn 0.0729 -0.7415 0.6670
vn 0.1329 -0.9877 0.0826
vn 0.0817 -0.9886 -0.1264
vn 0.4813 0.8625 -0.1561
vn 0.2189 0.9449 -0.2435
vn 0.2763 0.3893 -0.8787
vn 0.7197 0.6134 -0.3252
vn -0.9535 -0.2467 0.1728
vn -0.3754 0.6308 0.6791
vn -0.7712 0.6358 0.0316
vn -0.2537 0.6379 0.7271
vn -0.6455 -0.1942 -0.7386
vn -0.4684 0.1601 -0.8689
vn -0.5810 0.3263 -0.7457
vn 0.9562 0.0811 -0.2811
vn 0.3267 -0.0267 -0.9447
vn -0.7764 0.5399 0.3251
vn 0.5567 0.7483 0.3607
vn 0.9769 0.1093 -0.1834
vn 0.8133 0.1805 -0.5532
vn 0.6201 -0.6314 -0.4657
vt 0.169951 0.117010
vt 0.176513 0.116206
vt 0.181687 0.156203
vt 0.194314 0.079204
vt 0.168792 0.115606
vt 0.247159 0.168099
vt 0.183640 0.160557
vt 0.246871 0.170222
vt 0.319941 0.149827
vt 0.320037 0.149297
vt 0.337563 0.104112
vt 0.186286 0.162601
vt 0.325124 0.132121
vt 0.339119 0.108345
vt 0.248125 0.169481
vt 0.188744 0.095410
vt 0.168545 0.117518
vt 0.302923 0.149402
vt 0.319606 0.151235
vt 0.339095 0.108265
vt 0.334354 0.092599
vt 0.195837 0.076457
vt 0.212103 0.082419
vt 0.194868 0.076109
vt 0.319811 0.151291
vt 0.325069 0.131802
vt 0.338789 0.108526
vt 0.188138 0.096216
vt 0.194903 0.076259
vt 0.188132 0.096773
vt 0.186042 0.161769
vt 0.185945 0.161916
vt 0.215893 0.163201
vt 0.306749 0.150327
vt 0.318008 0.151059
vt 0.168467 0.117225
vt 0.169110 0.119492
vt 0.222055 0.123605
vt 0.224233 0.136221
vt 0.212935 0.082577
vt 0.223786 0.124783
vt 0.214600 0.083933
vt 0.189866 0.135756
vt 0.315616 0.146319
vt 0.288357 0.142088
vt 0.193792 0.078473
vt 0.190039 0.092621
vt 0.197170 0.076888
vt 0.185544 0.096845
vt 0.212357 0.082105
vt 0.214295 0.083685
vt 0.338578 0.109030
vt 0.229083 0.156144
vt 0.246245 0.169864
vt 0.335193 0.095370
vt 0.319114 0.151426
vt 0.339064 0.109779
vt 0.338729 0.107055
vt 0.194877 0.076072
vt 0.213003 0.082684
vt 0.186498 0.162883
vt 0.262954 0.158910
vt 0.218701 0.163428
vt 0.247971 0.169449
vt 0.299720 0.123155
s 1
f 13/1/1 17/2/2 50/3/3
f 1/4/4 20/5/5 17/2/2
f 2/6/6 18/7/7 14/8/8
f 16/9/9 19/10/10 9/11/11
f 17/2/2 18/7/7 11/12/12
f 9/11/11 23/13/13 22/14/14
f 18/7/7 24/15/15 14/8/8
f 19/10/10 23/13/13 9/11/11
f 20/5/5 29/16/16 28/17/17
f 14/18/8 27/19/18 19/10/10
f 22/14/14 33/20/19 21/21/20
f 21/22/20 33/23/19 37/24/21
f 27/19/18 40/25/22 23/13/13
f 34/26/23 32/27/24 33/20/19
f 42/28/25 25/29/26 47/30/27
f 38/31/28 43/32/29 44/33/30
f 39/34/31 45/35/32 40/25/22
f 33/23/19 25/29/26 37/24/21
f 41/36/33 46/37/34 38/31/28
f 44/33/30 43/32/29 48/38/35
f 48/38/35 46/37/34 47/30/27
f 46/37/34 48/38/35 43/32/29
f 44/33/30 48/38/35 30/39/36
f 32/40/24 30/41/36 25/29/26
f 6/42/37 4/43/38 52/44/39
f 53/45/40 52/44/39 4/43/38
f 10/46/41 49/47/42 54/48/43
f 5/49/44 54/48/43 49/47/42
f 5/49/44 10/46/41 13/1/1
f 1/4/4 10/46/41 7/50/45 3/51/46
f 51/52/47 6/14/37 52/44/39
f 53/53/40 11/12/12 8/54/48
f 53/53/40 4/43/38 50/3/3
f 51/52/47 54/55/43 6/14/37
f 51/42/47 7/50/45 54/48/43
f 54/48/43 5/49/44 4/43/38
f 2/18/6 16/9/9 12/56/49 8/18/48
f 50/3/3 17/2/2 11/12/12
f 17/2/2 13/1/1 10/46/41 1/4/4
f 14/18/8 19/10/10 16/9/9 2/18/6
f 8/54/48 11/12/12 2/6/6
f 7/57/45 12/56/49 16/9/9
f 7/57/45 16/9/9 3/58/46
f 2/6/6 11/12/12 18/7/7
f 17/2/2 20/5/5 18/7/7
f 1/4/4 15/59/50 20/5/5
f 1/4/4 3/51/46 9/60/11
f 1/4/4 9/60/11 15/59/50
f 3/58/46 16/9/9 9/11/11
f 28/17/17 26/61/51 18/7/7 20/5/5
f 9/11/11 22/14/14 21/21/20
f 20/5/5 15/59/50 29/16/16
f 15/59/50 9/60/11 21/22/20
f 14/8/8 24/15/15 27/62/18
f 15/59/50 21/22/20 29/16/16
f 18/7/7 26/61/51 24/15/15
f 34/26/23 33/20/19 22/14/14 23/13/13
f 19/10/10 27/19/18 23/13/13
f 23/13/13 40/25/22 34/26/23
f 42/28/25 41/36/33 28/17/17 29/16/16
f 36/63/52 24/15/15 26/61/51 38/31/28
f 24/15/15 36/63/52 35/64/53
f 27/19/18 39/34/31 40/25/22
f 39/62/31 27/62/18 24/15/15 35/64/53
f 41/36/33 38/31/28 26/61/51 28/17/17
f 42/28/25 29/16/16 21/22/20 37/24/21
f 46/37/34 41/36/33 42/28/25 47/30/27
f 33/23/19 32/40/24 25/29/26
f 31/64/54 35/64/53 36/63/52 44/33/30
f 38/31/28 46/37/34 43/32/29
f 31/64/54 45/62/32 39/62/31 35/64/53
f 36/63/52 38/31/28 44/33/30
f 45/35/32 32/27/24 34/26/23 40/25/22
f 42/28/25 37/24/21 25/29/26
f 31/64/54 44/33/30 30/39/36 45/62/32
f 47/30/27 25/29/26 30/41/36 48/38/35
f 12/56/49 52/44/39 53/45/40 8/18/48
f 32/27/24 45/35/32 30/65/36
f 4/43/38 5/49/44 13/1/1 50/3/3
f 5/49/44 49/47/42 10/46/41
f 7/57/45 51/52/47 52/44/39 12/56/49
f 53/53/40 50/3/3 11/12/12
f 54/48/43 4/43/38 6/42/37
f 54/48/43 7/50/45 10/46/41
