# Blender 4.5.2 LTS
# www.blender.org
mtllib bolide.mtl
o Icosphere
v 1.767093 0.977688 -1.438249
v 1.905509 0.434101 -0.841872
v -1.002856 -0.485798 0.153965
v 0.427038 -0.431046 -1.155183
v -0.181873 -0.427562 -0.976481
v -0.938773 -0.079391 -1.059791
v -1.712020 0.565658 0.859839
v 0.029422 1.067241 2.231909
v 1.722738 0.137151 0.789852
v -0.049137 -0.489358 1.261499
v -0.363634 0.867647 -1.989301
v 0.157031 2.684105 -1.689203
v 1.877924 1.141387 0.805529
v -0.222328 2.097381 2.033595
v -0.353078 3.375900 0.120194
v 1.060501 2.539197 -1.160470
v 0.195324 0.206195 -1.743023
v -1.084773 0.159120 1.514427
v -1.616685 2.024395 -1.228472
v -1.773932 1.505398 -0.945882
v 1.057401 0.919151 -1.873071
v 0.827502 -0.673564 0.629622
v -0.020117 0.392866 2.027956
v -1.312266 3.083899 0.190463
v 0.642505 1.872198 -1.959921
v 0.641475 1.918908 1.904719
v 0.651913 3.126974 0.636112
v 1.957665 1.546840 -0.863391
v 1.423497 1.998816 1.147555
v 1.295632 0.942664 1.572358
v 1.603652 2.504709 0.127552
v -1.169091 2.944355 -0.919783
v 0.094276 3.285815 -0.793329
v -0.972065 2.652431 1.396149
v -0.048283 2.892863 1.279728
v -0.435513 2.120648 -2.002220
v -1.903195 2.264429 -0.062545
v -1.327783 1.180196 1.850067
v 1.207673 -0.517387 -0.637662
v -0.962637 1.460173 -1.871711
v -1.202142 0.273190 -1.140094
v 1.625281 -0.240712 -0.177791
v -1.918124 1.755524 0.924424
v -1.170717 2.492877 -1.591623
v 1.018111 -0.123000 1.541577
v 0.696139 -0.677951 -0.446020
v -1.915537 0.982601 -0.236238
vn 0.0158 -0.5537 -0.8325
vn -0.2340 -0.2897 -0.9281
vn 0.3903 -0.2296 -0.8916
vn -0.9298 0.3676 -0.0157
vn -0.9394 -0.3136 -0.1382
vn -0.9168 0.1983 0.3466
vn 0.4562 -0.5754 0.6788
vn 0.0703 -0.0561 0.9959
vn -0.0500 -0.4340 0.8995
vn 0.3479 0.2547 -0.9023
vn 0.5981 0.6469 -0.4730
vn 0.7442 -0.1192 -0.6573
vn 0.9202 0.2851 -0.2683
vn 0.1497 0.9378 -0.3132
vn 0.7809 0.6167 0.0994
vn -0.0749 0.4381 0.8958
vn 0.0731 0.8019 0.5930
vn -0.4447 0.6655 0.5995
vn 0.9360 0.0605 0.3467
vn 0.6679 0.5187 0.5338
vn -0.8215 0.1990 -0.5344
vn -0.5106 0.7867 -0.3469
vn 0.8081 -0.4735 -0.3503
vn 0.8356 -0.4318 0.3396
vn -0.5940 0.7899 0.1524
vn 0.2967 -0.8883 0.3505
vn -0.4147 -0.9069 0.0749
vn 0.5279 -0.7560 -0.3870
vn 0.7689 -0.6333 -0.0885
vn -0.5066 -0.6910 -0.5157
vn -0.6699 -0.4979 -0.5508
vn -0.5301 -0.0561 -0.8461
vn -0.4468 -0.8944 -0.0202
vn -0.8749 -0.4266 0.2292
vn 0.4130 0.8547 0.3146
vn 0.1645 0.6712 -0.7228
vn 0.4443 0.3760 0.8132
vn -0.2007 -0.8082 0.5536
vn -0.1530 0.2604 -0.9533
vn -0.5351 0.4240 -0.7307
vn -0.0855 0.9905 0.1081
vn -0.6167 -0.0407 0.7861
vn 0.1102 -0.7896 -0.6037
vn 0.6599 -0.0308 0.7507
vn -0.9030 -0.0968 -0.4187
vn -0.1076 -0.9689 -0.2228
vn -0.5207 -0.5998 0.6075
vt 0.398582 0.144844
vt 0.472361 0.143254
vt 0.422913 0.221239
vt 0.726925 0.187305
vt 0.733050 0.093515
vt 0.799421 0.167048
vt 0.155239 0.248827
vt 0.056705 0.269914
vt 0.084770 0.224274
vt 0.494684 0.259761
vt 0.482919 0.345071
vt 0.389827 0.282923
vt 0.423443 0.356110
vt 0.579243 0.348344
vt 0.620982 0.322601
vt 0.617350 0.426006
vt 0.875292 0.324413
vt 0.802773 0.348562
vt 0.817552 0.273996
vt 0.314661 0.380958
vt 0.277720 0.439345
vt 0.243679 0.354180
vt 0.253383 0.428330
vt 0.634663 0.163441
vt 0.654568 0.229682
vt 0.329707 0.279246
vt 0.217240 0.287997
vt 0.720846 0.256823
vt 0.212155 0.191618
vt 0.262954 0.158910
vt 0.306592 0.190607
vt 0.279001 0.233526
vt 0.503808 0.089205
vt 0.528926 0.082289
vt 0.551587 0.148880
vt 0.910307 0.021843
vt 0.936245 0.065743
vt 0.890350 0.103831
vt 0.663860 0.412199
vt 0.557798 0.272738
vt 0.842988 0.400329
vt 0.809320 0.352219
vt 0.135287 0.171082
vt 0.554170 0.210359
vt 0.613421 0.199585
vt 0.713927 0.332662
vt 0.628480 0.147833
vt 0.892819 0.203092
vt 0.501259 0.135167
vt 0.349608 0.145035
vt 0.131780 0.318833
vt 0.949158 0.236275
vt 0.967858 0.205632
vt 0.673298 0.121910
vt 0.695271 0.070699
vt 0.353793 0.085482
vt 0.379207 0.077016
vt 0.223642 0.066726
vt 0.163035 0.062625
vt 0.195523 0.033115
vt 0.309932 0.147142
vt 0.131640 0.335342
vt 0.101536 0.404181
vt 0.056378 0.357588
vt 0.589443 0.110832
vt 0.672270 0.142749
vt 0.441970 0.136185
vt 0.943335 0.141603
vt 0.893603 0.113984
vt 0.785589 0.406603
vt 0.149857 0.360505
vt 0.568505 0.288509
vt 0.094860 0.407861
vt 0.090772 0.458531
vt 0.750131 0.354304
vt 0.159958 0.323917
vt 0.025593 0.332783
vt 0.984209 0.134672
vt 0.819141 0.166134
vt 0.943980 0.246057
vt 0.892641 0.308052
vt 0.817396 0.465342
vt 0.681650 0.336970
vt 0.454516 0.423211
vt 0.313869 0.180819
vt 0.185077 0.010761
vt 0.897316 0.055285
vt 0.761248 0.079115
vt 0.353766 0.291176
vt 0.411195 0.341211
vt 0.885392 0.313316
s 1
f 17/1/1 11/2/2 21/3/3
f 37/4/4 47/5/5 43/6/6
f 45/7/7 8/8/8 23/9/9
f 25/10/10 16/11/11 1/12/12
f 1/12/12 16/11/11 28/13/13
f 16/14/11 33/15/14 31/16/15
f 14/17/16 35/18/17 34/19/18
f 28/20/13 31/21/15 13/22/19
f 29/23/20 13/22/19 31/21/15
f 19/24/21 37/4/4 32/25/22
f 13/22/19 2/26/23 28/20/13
f 9/27/24 2/26/23 13/22/19
f 24/28/25 37/4/4 34/19/18
f 22/29/26 46/30/27 39/31/28
f 39/31/28 42/32/29 22/29/26
f 22/29/26 42/32/29 45/7/7
f 11/2/2 25/10/10 21/3/3
f 6/33/30 41/34/31 40/35/32
f 41/36/31 3/37/33 7/38/34
f 27/39/35 31/16/15 33/15/14
f 16/11/11 25/10/10 12/40/36
f 14/17/16 26/41/37 35/42/17
f 23/9/9 10/43/38 45/7/7
f 12/40/36 36/44/39 44/45/40
f 24/28/25 15/46/41 32/25/22
f 40/35/32 19/47/21 36/44/39
f 43/6/6 38/48/42 34/19/18
f 42/32/29 2/26/23 9/27/24
f 11/49/2 6/33/30 40/35/32
f 21/3/3 4/50/43 17/1/1
f 45/7/7 30/51/44 8/8/8
f 12/40/36 32/25/22 33/15/14
f 8/52/8 38/48/42 23/53/9
f 47/5/5 20/54/45 41/55/31
f 5/56/46 6/57/30 17/1/1
f 5/58/46 3/59/33 6/60/30
f 5/58/46 4/50/43 46/61/27
f 30/62/44 29/63/20 26/64/37
f 41/34/31 20/65/45 40/35/32
f 40/35/32 20/65/45 19/47/21
f 20/66/45 37/4/4 19/24/21
f 2/26/23 21/3/3 1/12/12
f 17/1/1 6/57/30 11/67/2
f 18/68/47 7/69/34 3/37/33
f 12/40/36 25/10/10 36/44/39
f 37/4/4 43/6/6 34/19/18
f 24/28/25 34/19/18 15/46/41
f 35/42/17 26/41/37 27/70/35
f 13/71/19 29/63/20 30/62/44
f 12/72/36 33/15/14 16/14/11
f 29/73/20 31/74/15 26/64/37
f 35/42/17 27/70/35 15/75/41
f 9/27/24 13/22/19 30/76/44
f 44/45/40 36/44/39 19/47/21
f 42/32/29 39/31/28 21/3/3
f 14/77/16 8/8/8 26/64/37
f 10/78/38 18/68/47 3/37/33
f 4/50/43 5/56/46 17/1/1
f 38/48/42 43/79/6 7/69/34
f 7/69/34 18/68/47 38/48/42
f 8/80/8 14/81/16 38/48/42
f 31/82/15 27/70/35 26/41/37
f 44/45/40 32/25/22 12/40/36
f 33/15/14 15/83/41 27/39/35
f 31/84/15 28/13/13 16/11/11
f 4/50/43 39/85/28 46/61/27
f 21/3/3 39/31/28 4/50/43
f 41/86/31 6/60/30 3/59/33
f 7/38/34 47/87/5 41/36/31
f 44/45/40 19/24/21 32/25/22
f 30/76/44 45/7/7 9/27/24
f 8/8/8 30/62/44 26/64/37
f 37/4/4 24/28/25 32/25/22
f 42/32/29 9/27/24 45/7/7
f 37/4/4 20/66/45 47/5/5
f 25/10/10 1/12/12 21/3/3
f 15/46/41 34/19/18 35/18/17
f 47/5/5 7/88/34 43/6/6
f 40/35/32 36/44/39 11/2/2
f 11/2/2 36/44/39 25/10/10
f 2/89/23 1/12/12 28/90/13
f 33/15/14 32/25/22 15/46/41
f 14/91/16 34/19/18 38/48/42
f 18/68/47 23/53/9 38/48/42
f 22/29/26 45/7/7 10/43/38
f 18/68/47 10/78/38 23/53/9
f 2/26/23 42/32/29 21/3/3
f 46/61/27 22/29/26 10/43/38 3/59/33 5/58/46
