# Blender 4.5.2 LTS
# www.blender.org
mtllib Bolideshrub.mtl
o Icosphere
v 1.882294 6.498863 -1.135486
v 1.936617 6.333463 -0.863456
v 1.856993 5.873402 -0.452852
v 1.882555 6.066129 -0.895815
v -1.003421 5.248842 -0.279067
v -0.816722 5.139075 0.455078
v -1.097637 5.353797 0.597152
v -1.245160 5.436860 0.302355
v 0.589558 5.182889 -1.098066
v 0.387603 5.168343 -1.138806
v -0.572671 5.574226 -1.277712
v -0.462386 5.307571 -1.040735
v -1.140257 5.842221 -1.152820
v -0.898719 5.869448 -1.283901
v -1.604818 6.010701 0.842108
v -1.794375 6.485824 0.823321
v -1.712550 6.182799 0.694695
v -0.035569 6.744065 2.218804
v -0.341981 6.684417 2.175491
v 0.180401 6.223025 2.067018
v 0.325980 6.506114 2.079443
v 1.581486 5.722413 0.985931
v 1.763171 5.859488 0.731659
v -0.468078 5.197351 1.072832
v -0.052165 5.122336 1.203328
v -0.261790 5.279408 1.397444
v -0.448079 6.219430 -1.794242
v -0.453539 6.575378 -1.977258
v -0.038526 6.424113 -1.970812
v 0.101053 8.158240 -1.770941
v -0.301173 8.229516 -1.685117
v 0.412326 8.243086 -1.575465
v 1.858410 6.777977 0.809377
v 1.759411 6.611286 0.992656
v 1.814531 7.152898 0.622130
v -0.290989 7.498749 2.073462
v -0.002496 7.629214 2.020278
v -0.205943 7.790891 1.962134
v -0.503007 7.878791 1.836166
v -0.204328 8.968973 0.046172
v -0.529367 8.901573 -0.182782
v -0.655281 8.795865 0.439630
v -0.125053 8.856225 0.471583
v 1.068673 8.059511 -1.219653
v 0.727052 8.379789 -1.110160
v 1.230489 8.136531 -0.830259
v 0.184090 5.900490 -1.785785
v 0.212357 5.707098 -1.658265
v -1.040196 5.629057 1.328587
v -1.100084 5.810386 1.534547
v -1.748848 7.676105 -0.879782
v -1.462986 7.805536 -1.343003
v -1.370934 7.569438 -1.422843
v -1.552700 7.095146 -1.240471
v -1.814055 7.244219 -0.832362
v 1.199295 6.134411 -1.428981
v 0.609670 6.468049 -1.927970
v 1.052970 6.654093 -1.856196
v 0.723707 5.493615 1.617393
v 0.941399 5.264324 1.264213
v 0.867938 4.961335 0.550147
v 0.945828 5.063657 0.823641
v 0.673473 5.013926 0.863317
v 0.122899 5.698893 1.815719
v -0.171786 6.263173 2.110470
v -0.602945 5.803425 1.680629
v -1.099105 8.769608 0.185212
v -1.477846 8.442609 -0.098000
v -1.306616 8.656459 0.257354
v 0.437865 7.470598 -1.973541
v 0.691124 7.506268 -1.905861
v 0.807554 7.644255 -1.742077
v -1.072710 8.095152 -1.635838
v 0.442140 7.834362 1.727446
v 0.385071 7.481068 1.984127
v 0.822381 7.242594 1.843745
v 0.953777 7.717114 1.391940
v 0.596489 8.733420 0.629771
v 0.648399 8.510724 0.912688
v 0.519120 8.798035 0.279081
v 1.864060 7.462123 -0.586060
v 1.966372 7.064436 -0.463092
v 1.936304 6.995576 -0.970602
v 1.731877 7.385237 -0.977546
v 0.059396 8.914890 -0.593854
v 0.422219 8.741928 -0.682206
v -0.129125 8.785690 -0.903334
v -0.247489 8.459597 1.284057
v 0.142394 8.532157 1.186309
v 1.422098 7.634902 1.116374
v 1.449542 7.510147 1.155941
v 1.410905 6.496282 1.428125
v 1.218514 6.662548 1.630827
v 0.841842 6.682029 1.864077
v 1.098465 6.165990 1.663433
v 1.435092 8.170680 -0.200109
v 1.215206 8.399498 0.278849
v 1.413372 7.996742 0.551567
v 1.718097 7.771752 0.230828
v 1.691590 7.900949 -0.145766
v -1.346447 8.392655 -0.804249
v -1.190106 8.626893 -0.573408
v -0.739778 8.709305 -0.820884
v -1.135348 8.450220 -1.106625
v -0.770770 8.138800 1.554097
v -0.723310 8.391387 1.269812
v -1.080293 8.478909 0.904566
v -1.063519 8.295161 1.196214
v -0.114854 7.512618 -2.022776
v -0.640062 7.361777 -1.973561
v -0.499114 7.672858 -1.980446
v -0.262157 7.864060 -1.948893
v -1.753044 8.012539 -0.329132
v -1.906023 7.703516 -0.275135
v -1.717615 7.963679 0.284407
v -1.522825 6.997488 1.584649
v -1.389159 6.502594 1.636851
v -0.873649 6.680667 2.007725
v -1.000460 7.047009 1.936982
v 1.194402 5.322641 -0.864477
v 1.009297 5.011288 -0.553436
v -0.984648 6.905233 -1.785290
v -1.211862 7.106404 -1.645729
v -0.951715 7.203026 -1.844546
v -1.345606 5.977424 -0.808973
v -1.420312 6.376413 -1.127726
v -1.167492 6.135698 -1.308547
v -1.911456 6.639570 -0.263634
v -1.775866 6.427095 -0.408044
v -0.229730 3.039810 -0.132583
v 1.538416 5.579424 -0.564344
v 1.697224 5.500457 -0.017721
v 1.487202 5.376159 0.319894
v -1.855293 7.073817 0.982404
v -1.756159 7.263377 1.187675
v -1.889925 7.454391 0.846133
v -1.942675 7.254982 0.629505
v 0.166955 8.637966 -1.168664
v 1.429633 6.540639 -1.645550
v 1.684781 6.545648 -1.486088
v -0.459245 8.932853 0.137943
v -1.639053 7.501375 -1.185666
v 0.927351 6.310757 -1.798191
v 1.013546 5.475339 1.477100
v -0.114420 5.864293 1.918078
v 0.764286 7.568855 1.736634
v 1.559412 8.075090 0.192250
v -1.329679 7.986835 1.184957
v -1.892831 7.844050 -0.045070
v -1.273415 6.726068 1.826644
v 1.127419 5.096512 -0.695394
v 0.664670 4.122964 0.306333
v 0.150238 0.877770 -0.547561
v 0.305530 2.278687 -0.495000
v -0.494964 1.012720 -0.678275
v -0.042923 3.105949 -0.499280
v 1.422549 5.209266 -0.152820
v 1.606005 5.388586 -0.221180
v -1.305110 7.976683 -1.498832
v 1.093073 5.744452 1.566171
v 0.731215 4.919960 -0.356781
v 1.919445 6.806945 0.395692
v 1.566175 6.737290 -1.560397
v -1.071894 7.901648 1.515439
v 1.682887 5.634319 0.615030
v 0.284025 5.229088 1.381534
v -1.938015 6.981442 -0.201054
v -0.420999 4.963956 0.063252
v -0.329926 5.008335 0.491101
v 0.287090 4.948902 0.694315
v 0.322967 4.982264 -0.636849
v 0.644371 4.992003 -0.640443
v -1.629038 6.348922 1.148264
v 0.904147 6.995015 -1.916314
v 0.220543 7.054011 2.121717
v 0.566333 4.874179 0.363798
v -0.038143 5.085496 -0.746138
v -0.563969 5.086203 -0.302413
v -0.381073 6.846236 -2.014035
v 0.780360 4.921459 0.015816
v -0.972037 5.156082 0.075833
v -0.971830 5.496654 -0.947691
v 0.112742 4.336792 -0.486669
v 0.529042 4.224599 -0.397211
v 0.789724 4.162717 0.098063
v -0.721870 1.126273 -0.590758
v -0.230147 4.204540 -0.119796
v 0.433888 4.172684 0.633252
v 0.736347 4.180332 -0.236887
v 0.672925 4.224346 -0.408644
v -0.019971 4.060975 0.468607
v 0.176457 0.843809 -0.378293
v -0.014245 0.886828 -0.681665
v -0.583168 1.031764 -0.043999
v -0.802266 1.130176 -0.148932
v 0.373695 2.611590 0.227153
v 0.490323 3.215650 0.196185
v 0.051350 2.951460 0.269677
v -0.088374 2.959151 0.086434
v 0.216934 0.900409 -0.016601
v -0.285402 0.981804 -0.833792
v -0.265652 1.032508 0.123478
v -2.024857 -0.122085 -0.245338
v -1.944538 -0.019286 -1.057898
v -1.326564 -0.143835 -1.312455
v 0.588272 -7.341806 -0.144218
v 1.344437 -0.239225 -1.136667
v 1.567968 -0.386903 -0.291316
v -2.034920 -6.983860 0.126691
v -2.144609 -0.147006 0.592033
v 1.183722 -0.298147 1.104688
v 1.760803 -0.267291 0.759368
v 0.254028 -0.241833 -1.817323
v -0.832414 -0.201847 -1.552528
v -0.288090 -0.102526 -2.029021
v -0.032306 -0.206053 1.507475
v -1.111071 -0.413512 0.958760
v 0.830396 -7.348756 -0.809278
v 1.328791 -7.063235 -1.541736
v -0.418297 -7.328999 -0.932194
v -0.895568 -7.029853 -1.870493
v -1.831611 -6.876732 -1.457718
v -3.739152 -3.072958 -0.624185
v -3.596389 -2.869417 -2.041829
v -1.623272 -3.240464 -2.881175
v 2.953393 -3.307410 -2.198693
v 3.412963 -3.610327 -0.482645
v -3.994819 -3.123762 1.243903
v 2.553412 -3.435053 2.310195
v 3.774487 -3.353331 1.566149
v 1.133452 -3.344862 -3.355836
v -0.281207 -3.049787 -3.967523
v 0.207382 -3.379884 3.148566
v -1.834241 -3.657051 2.008520
v 1.717173 -7.081542 0.303667
v 1.572885 -7.217858 -0.618136
v 0.214352 -7.286063 -1.442659
v 0.475913 -7.081227 -2.083566
v -0.238249 -6.942100 -2.393743
v 0.964546 -7.126890 0.718831
v -0.018778 -7.093093 1.040193
v -0.958085 -7.222365 0.514128
v 0.055499 -7.420103 -0.661491
vn -0.0031 -0.8167 -0.5770
vn -0.2632 -0.7646 -0.5882
vn -0.2900 -0.8096 -0.5103
vn -0.0143 -0.4890 -0.8722
vn -0.0173 -0.2290 -0.9733
vn 0.1378 -0.1945 -0.9712
vn -0.9680 0.2032 -0.1471
vn -0.9961 -0.0255 -0.0849
vn -0.9947 -0.0102 0.1022
vn -0.9514 -0.2618 -0.1620
vn 0.5386 0.4436 -0.7163
vn 0.6124 0.5908 -0.5252
vn 0.6394 0.2096 -0.7398
vn 0.7458 0.4574 -0.4844
vn 0.6546 0.6865 -0.3166
vn 0.4376 0.8628 -0.2531
vn 0.6695 0.7255 -0.1595
vn -0.2649 0.5104 0.8181
vn -0.5453 0.4335 0.7174
vn -0.4385 0.2066 0.8747
vn -0.3036 0.6156 0.7272
vn -0.0016 0.5367 0.8437
vn -0.0576 0.8128 0.5797
vn 0.9940 0.1050 0.0292
vn 0.9036 0.3817 0.1943
vn 0.9930 0.0455 0.1089
vn 0.9254 0.2731 0.2626
vn 0.6701 0.5532 0.4950
vn 0.3771 -0.1012 -0.9206
vn 0.3393 0.0949 -0.9359
vn -0.8969 0.2837 -0.3392
vn -0.8431 0.5053 -0.1840
vn -0.7417 0.6070 -0.2854
vn 0.9862 -0.1349 -0.0957
vn 0.9178 -0.2518 0.3070
vn 0.9463 -0.3198 -0.0476
vn -0.8082 -0.1738 -0.5627
vn -0.6885 -0.0565 -0.7230
vn -0.7971 -0.3213 -0.5112
vn -0.6266 0.7556 0.1912
vn -0.8020 0.5283 0.2786
vn -0.5351 0.6506 0.5389
vn 0.2138 -0.2987 0.9301
vn 0.0178 -0.5653 0.8247
vn 0.2362 -0.5766 0.7821
vn 0.4502 -0.8380 0.3084
vn 0.6561 -0.7312 0.1868
vn 0.4139 -0.7821 0.4658
vn 0.0198 0.0937 -0.9954
vn 0.1503 0.1586 -0.9758
vn -0.4134 -0.5034 -0.7587
vn -0.5834 -0.4037 -0.7047
vn -0.5537 -0.2253 -0.8017
vn -0.6096 -0.5539 -0.5670
vn -0.8115 -0.5350 -0.2351
vn -0.7760 -0.6308 0.0020
vn -0.9079 -0.4082 0.0953
vn -0.5274 -0.7898 -0.3130
vn -0.6252 -0.7456 -0.2307
vn -0.3371 -0.8777 0.3406
vn -0.6173 -0.7477 0.2447
vn -0.4077 -0.8874 0.2150
vn -0.9452 -0.2429 0.2183
vn -0.8510 -0.3188 0.4173
vn -0.9388 -0.0763 0.3359
vn 0.4570 -0.0347 0.8888
vn 0.2672 0.1236 0.9557
vn 0.0703 -0.0231 0.9973
vn -0.2270 0.8141 0.5346
vn -0.1848 0.9146 0.3597
vn 0.3507 0.9361 0.0276
vn 0.6356 0.7574 0.1497
vn 0.3718 0.6523 -0.6605
vn 0.3504 0.5975 0.7213
vn 0.1586 0.8030 0.5745
vn 0.0367 -0.8032 0.5946
vn -0.1126 0.7152 -0.6897
vn -0.0271 0.3969 -0.9175
vn -0.4488 0.4851 -0.7505
vn 0.0132 0.9981 0.0595
vn 0.3729 0.8685 0.3265
vn -0.3624 0.9269 0.0978
vn -0.2066 0.9692 -0.1337
vn -0.5194 0.8256 -0.2205
vn -0.5070 0.0624 -0.8597
vn -0.6327 0.0539 -0.7725
vn -0.2399 0.2224 -0.9450
vn -0.8145 0.2077 0.5418
vn -0.7629 0.0979 0.6391
vn 0.8235 -0.5640 0.0612
vn -0.3027 0.0682 -0.9507
vn -0.2785 -0.2797 -0.9188
vn 0.7553 -0.6492 0.0899
vn 0.9740 -0.0916 0.2073
vn 0.7686 -0.5998 -0.2224
vn 0.2432 -0.7810 -0.5752
vn 0.0289 -0.0991 -0.9947
vn 0.0295 -0.6344 -0.7724
vn -0.3772 -0.4641 -0.8014
vn 0.3431 -0.4153 -0.8425
vn 0.2760 -0.7371 -0.6169
vn 0.0103 -0.6235 -0.7817
vn 0.7881 -0.4995 -0.3597
vn 0.9052 -0.1096 -0.4106
vn -0.1427 -0.3593 0.9223
vn -0.2102 -0.0628 0.9756
vn 0.7864 -0.5765 0.2219
vn 0.7543 -0.4269 0.4988
vn -0.2270 -0.7515 0.6195
vn -0.1252 -0.9047 0.4073
vn -0.0771 -0.0429 -0.9961
vn 0.4773 -0.3485 -0.8067
vn 0.7107 -0.2105 -0.6713
vn 0.4864 0.7646 -0.4228
vn 0.4990 -0.5724 0.6507
vn 0.3684 0.3097 -0.8766
vn 0.5438 -0.1643 0.8229
vn 0.6524 0.0409 0.7567
vn -0.9312 0.3631 0.0328
vn -0.7659 0.6392 -0.0690
vn 0.3117 -0.9324 -0.1829
vn 0.4681 -0.7761 -0.4226
vn 0.6087 -0.7933 0.0107
vn -0.5711 -0.6814 -0.4578
vn -0.3470 -0.6269 -0.6976
vn -0.1503 0.2865 0.9462
vn -0.7799 0.2051 -0.5913
vn -0.6993 0.2909 -0.6530
vn 0.7684 0.2958 0.5675
vn 0.9400 0.0929 0.3283
vn 0.8413 0.5355 -0.0743
vn 0.6607 -0.5659 0.4932
vn 0.3541 -0.1179 0.9277
vn 0.8380 -0.0954 0.5373
vn -0.1485 -0.5183 0.8422
vn 0.4895 0.6866 0.5375
vn 0.1486 0.9624 -0.2273
vn 0.8984 0.4037 -0.1728
vn 0.8434 -0.0247 0.5367
vn -0.4716 0.7645 -0.4394
vn -0.0891 0.8979 -0.4312
vn -0.2315 0.9081 -0.3489
vn 0.3539 -0.1183 0.9278
vn -0.4625 0.7684 0.4424
vn -0.3524 -0.1495 0.9238
vn 0.6084 -0.5412 -0.5805
vn 0.7516 -0.6497 -0.1137
vn -0.8545 -0.4590 -0.2431
vn 0.6018 -0.1227 -0.7892
vn -0.7381 -0.6569 0.1539
vn -0.5509 -0.8340 -0.0300
vn 0.3397 -0.9259 0.1649
vn 0.5279 0.4555 0.7168
vn 0.5306 0.2116 0.8208
vn 0.5278 0.6513 0.5452
vn -0.3044 -0.5133 0.8024
vn 0.5392 -0.5411 -0.6453
vn -0.8360 -0.4983 0.2300
vn -0.5276 -0.5600 0.6388
vn -0.5391 -0.7333 0.4143
vn -0.6408 -0.1859 0.7449
vn -0.4777 -0.7808 0.4026
vn -0.7025 0.5189 0.4870
vn 0.1627 0.8420 -0.5144
vn 0.9172 0.1820 -0.3543
vn -0.7239 -0.2837 0.6289
vn -0.5797 -0.1048 0.8080
vn 0.5733 -0.3001 0.7624
vn 0.1156 -0.9306 0.3474
vn -0.8254 0.0920 -0.5569
vn -0.9290 -0.0648 -0.3644
vn -0.9869 0.1324 0.0920
vn -0.7751 -0.0028 0.6319
vn -0.2543 -0.2166 -0.9425
vn -0.9535 -0.2021 -0.2238
vn 0.5523 -0.1736 0.8154
vn 0.8798 -0.1846 0.4380
vn 0.7847 0.4010 -0.4728
vn 0.7591 -0.0734 -0.6468
vn -0.5080 0.1616 -0.8460
vn 0.7427 0.5266 0.4135
vn 0.9068 0.4002 -0.1327
vn 0.5507 0.3847 -0.7407
vn -0.6951 0.5836 0.4197
vn -0.3975 0.4052 0.8233
vn -0.3527 0.4111 -0.8406
vn -0.5916 0.5010 -0.6316
vn -0.0267 0.4934 -0.8694
vn -0.4758 0.5276 -0.7038
vn 0.3363 0.6185 0.7102
vn 0.6703 0.6819 0.2926
vn -0.7879 0.6136 -0.0522
vn -0.6056 0.6339 0.4810
vn -0.5196 0.0419 -0.8534
vn -0.2620 0.5155 -0.8159
vn -0.1038 0.6389 -0.7622
vn -0.1156 0.1228 -0.9857
vn -0.4091 -0.0899 0.9080
vn -0.6148 -0.7326 0.2920
vn -0.2780 -0.8400 0.4659
vn 0.4446 -0.0261 0.8954
vn 0.5898 -0.7493 0.3012
vn 0.9115 0.0399 0.4093
vn 0.5841 -0.8033 -0.1166
vn -0.0581 -0.0020 0.9983
vn -0.0528 -0.7447 0.6653
vn 0.2353 -0.8000 0.5519
vn -0.9928 0.0339 -0.1151
vn -0.8639 0.0405 0.5020
vn -0.5871 -0.6723 -0.4509
vn -0.3589 -0.7494 -0.5565
vn -0.1735 -0.9744 -0.1430
vn 0.0898 -0.9853 0.1454
vn -0.1368 -0.6471 -0.7500
vn 0.2591 -0.7359 -0.6256
vn 0.0013 -0.9699 -0.2434
vn 0.1463 -0.9834 -0.1073
vn -0.0471 -0.9989 -0.0079
vn -0.8971 0.3171 0.3078
vn 0.1297 0.6042 -0.7862
vn 0.7488 -0.0440 0.6614
vn 0.6375 0.6394 0.4297
vn -0.0143 0.9421 0.3350
vn 0.6276 -0.5776 -0.5220
vn 0.1744 0.3992 0.9001
vn 0.3249 0.3413 0.8820
vn 0.0391 -0.7536 0.6561
vn -0.1631 0.9748 0.1520
vn 0.7567 0.6247 0.1931
vn 0.9626 -0.1064 -0.2491
vn -0.4254 -0.1331 0.8952
vn -0.2128 0.3944 0.8939
vn -0.6068 0.6443 -0.4654
vn 0.6499 0.6454 -0.4015
vn 0.7723 0.6153 -0.1583
vn 0.4404 0.5879 -0.6785
vn -0.3255 0.4852 0.8116
vn -0.0794 0.5962 0.7989
vn -0.8113 0.1154 -0.5732
vn 0.8162 0.0875 -0.5712
vn 0.9765 -0.0094 -0.2151
vn 0.4688 0.0522 -0.8818
vn 0.5487 -0.6884 -0.4743
vt 0.350298 0.142929
vt 0.339036 0.108069
vt 0.367246 0.076043
vt 0.405765 0.147875
vt 0.441353 0.143049
vt 0.435626 0.196025
vt 0.711322 0.169479
vt 0.732060 0.115230
vt 0.788396 0.159045
vt 0.734627 0.091871
vt 0.491580 0.279307
vt 0.484449 0.341014
vt 0.410817 0.277330
vt 0.425457 0.347774
vt 0.580747 0.369250
vt 0.613549 0.342929
vt 0.612050 0.422519
vt 0.869615 0.306634
vt 0.833091 0.254200
vt 0.891706 0.232462
vt 0.829013 0.287602
vt 0.875292 0.324413
vt 0.811171 0.342775
vt 0.314661 0.380958
vt 0.277720 0.439345
vt 0.254174 0.354475
vt 0.251641 0.378044
vt 0.253383 0.428330
vt 0.429816 0.234464
vt 0.454841 0.245431
vt 0.657769 0.154584
vt 0.702309 0.193938
vt 0.661346 0.218369
vt 0.329605 0.291739
vt 0.225516 0.297366
vt 0.311529 0.274919
vt 0.622057 0.135358
vt 0.567912 0.145416
vt 0.554616 0.084642
vt 0.724126 0.257094
vt 0.747010 0.207809
vt 0.802905 0.269010
vt 0.073084 0.245820
vt 0.094019 0.207222
vt 0.139374 0.234025
vt 0.202778 0.214238
vt 0.244544 0.239812
vt 0.170232 0.232427
vt 0.525463 0.217922
vt 0.498465 0.244317
vt 0.510851 0.090982
vt 0.543899 0.085354
vt 0.547913 0.133600
vt 0.525686 0.081626
vt 0.910307 0.021843
vt 0.932836 0.060210
vt 0.887946 0.102670
vt 0.203709 0.046221
vt 0.194929 0.076130
vt 0.170626 0.055320
vt 0.974493 0.120486
vt 0.937351 0.075087
vt 0.944214 0.068421
vt 0.880536 0.119820
vt 0.886142 0.131241
vt 0.842712 0.150426
vt 0.113028 0.314994
vt 0.051591 0.307975
vt 0.050726 0.266784
vt 0.804995 0.298327
vt 0.717059 0.316063
vt 0.661465 0.397510
vt 0.630050 0.422569
vt 0.551237 0.284141
vt 0.849462 0.391210
vt 0.809967 0.367242
vt 0.138905 0.186742
vt 0.576201 0.256333
vt 0.554505 0.228126
vt 0.610066 0.203127
vt 0.675740 0.343925
vt 0.667832 0.400026
vt 0.715468 0.270872
vt 0.683184 0.315974
vt 0.671773 0.243843
vt 0.551725 0.153420
vt 0.624342 0.157871
vt 0.554051 0.204068
vt 0.820962 0.179279
vt 0.871571 0.195651
vt 0.270609 0.251205
vt 0.541437 0.181938
vt 0.481668 0.142006
vt 0.247971 0.169449
vt 0.248761 0.168893
vt 0.262954 0.158910
vt 0.319828 0.151200
vt 0.322602 0.138616
vt 0.325075 0.131790
vt 0.497296 0.127289
vt 0.414830 0.202811
vt 0.346307 0.155101
vt 0.388767 0.140701
vt 0.340140 0.277497
vt 0.338919 0.272961
vt 0.345362 0.277897
vt 0.958159 0.218909
vt 0.954240 0.234296
vt 0.951446 0.232804
vt 0.230494 0.274667
vt 0.200944 0.287924
vt 0.982378 0.137263
vt 0.985257 0.133348
vt 0.987436 0.135698
vt 0.492296 0.137273
vt 0.502462 0.137558
vt 0.497126 0.138543
vt 0.403898 0.256228
vt 0.392138 0.280532
vt 0.497941 0.342916
vt 0.500523 0.334861
vt 0.503257 0.337497
vt 0.160758 0.248861
vt 0.491760 0.262759
vt 0.137677 0.301455
vt 0.130672 0.319250
vt 0.732291 0.188486
vt 0.707430 0.231647
vt 0.311849 0.173733
vt 0.314545 0.180300
vt 0.311056 0.183499
vt 0.178408 0.010483
vt 0.186777 0.012868
vt 0.193480 0.033716
vt 0.158236 0.061930
vt 0.500120 0.088275
vt 0.793629 0.147210
vt 0.768886 0.081859
vt 0.542108 0.143537
vt 0.543717 0.147162
vt 0.942626 0.248461
vt 0.894576 0.300569
vt 0.633713 0.166210
vt 0.620287 0.192336
vt 0.101173 0.400920
vt 0.148749 0.362134
vt 0.101682 0.405494
vt 0.611380 0.425757
vt 0.216221 0.163232
vt 0.187033 0.161189
vt 0.219176 0.163501
vt 0.439801 0.133667
vt 0.428899 0.125117
vt 0.959147 0.228222
vt 0.973940 0.194348
vt 0.978252 0.190933
vt 0.665173 0.413896
vt 0.660899 0.417880
vt 0.631750 0.328417
vt 0.795661 0.408791
vt 0.783385 0.406124
vt 0.420845 0.359053
vt 0.428317 0.367523
vt 0.450853 0.420408
vt 0.230739 0.344739
vt 0.238129 0.346644
vt 0.639428 0.227101
vt 0.621283 0.300371
vt 0.643922 0.265444
vt 0.069811 0.263590
vt 0.776633 0.275248
vt 0.949158 0.236275
vt 0.914639 0.213804
vt 0.307955 0.191056
vt 0.316939 0.190826
vt 0.282199 0.235304
vt 0.699148 0.069260
vt 0.728127 0.088369
vt 0.694722 0.070903
vt 0.725771 0.095568
vt 0.689355 0.077323
vt 0.379207 0.077016
vt 0.319815 0.151269
vt 0.188595 0.095527
vt 0.156083 0.083527
vt 0.162432 0.068316
vt 0.216936 0.193106
vt 0.275486 0.214871
vt 0.837205 0.405477
vt 0.092318 0.410656
vt 0.065064 0.353738
vt 0.062699 0.385049
vt 0.061496 0.370530
vt 0.123438 0.329337
vt 0.955159 0.171494
vt 0.383095 0.225817
vt 0.899209 0.109244
vt 0.942696 0.144721
vt 0.946450 0.126404
vt 0.168922 0.122279
vt 0.168466 0.117219
vt 0.808016 0.239467
vt 0.578904 0.343636
vt 0.594930 0.303840
vt 0.411378 0.346571
vt 0.353766 0.291176
vt 0.409025 0.333605
vt 0.370097 0.291922
vt 0.898857 0.172559
vt 0.895446 0.197351
vt 0.153297 0.266305
vt 0.137650 0.159843
vt 0.191043 0.192464
vt 0.629386 0.145636
vt 0.672270 0.142749
vt 0.199038 0.076825
vt 0.186677 0.098541
vt 0.212917 0.082562
vt 0.195874 0.076452
vt 0.188982 0.167521
vt 0.179533 0.160739
vt 0.338618 0.106691
vt 0.338572 0.106537
vt 0.184435 0.161062
vt 0.223527 0.164164
vt 0.195284 0.076246
vt 0.189764 0.092701
vt 0.324846 0.132224
vt 0.339119 0.108346
vt 0.319817 0.151257
vt 0.323850 0.134656
vt 0.177507 0.146708
vt 0.186142 0.162242
vt 0.210933 0.081887
vt 0.194868 0.076109
vt 0.325069 0.131802
vt 0.329464 0.123479
vt 0.319820 0.151241
vt 0.319811 0.151291
vt 0.188138 0.096216
vt 0.194903 0.076259
vt 0.188132 0.096773
vt 0.177038 0.145760
vt 0.185945 0.161916
vt 0.186308 0.162243
vt 0.215893 0.163201
vt 0.168467 0.117225
vt 0.168364 0.116835
vt 0.175380 0.141829
vt 0.212103 0.082419
vt 0.339043 0.108095
vt 0.325158 0.131633
vt 0.302838 0.120624
vt 0.216551 0.131790
vt 0.319830 0.151189
vt 0.306340 0.150229
vt 0.299757 0.125054
vt 0.224851 0.128116
vt 0.221889 0.122869
vt 0.224489 0.126556
vt 0.224233 0.136221
vt 0.212935 0.082577
vt 0.221710 0.118884
vt 0.672479 0.128824
vt 0.796932 0.174278
vt 0.556881 0.269530
vt 0.142389 0.343212
vt 0.153048 0.355815
vt 0.299179 0.185020
vt 0.245147 0.373731
vt 0.568505 0.288509
vt 0.088073 0.455208
vt 0.759010 0.357856
vt 0.159958 0.323917
vt 0.471198 0.151081
vt 0.310517 0.233530
vt 0.026740 0.330613
vt 0.045927 0.349322
vt 0.184686 0.159610
vt 0.213140 0.082744
vt 0.720554 0.337944
vt 0.817396 0.465342
vt 0.846513 0.413403
vt 0.122380 0.168396
vt 0.456026 0.424366
vt 0.476128 0.363084
vt 0.306256 0.150208
vt 0.329498 0.272181
vt 0.157606 0.063584
vt 0.159930 0.061287
vt 0.203003 0.039110
vt 0.202091 0.035113
vt 0.196445 0.025333
vt 0.885717 0.109743
vt 0.891299 0.104289
vt 0.886008 0.108374
vt 0.955816 0.233991
vt 0.567485 0.273663
vt 0.567558 0.271222
vt 0.564235 0.275338
vt 0.246662 0.353508
vt 0.242964 0.350156
vt 0.886700 0.316443
vt 0.884099 0.313588
vt 0.887535 0.309226
vt 0.694262 0.321405
vt 0.690067 0.330012
vt 0.691379 0.330633
vt 0.694768 0.322826
vt 0.653112 0.143876
vt 0.656455 0.139704
vt 0.655696 0.142227
vt 0.654095 0.141751
vt 0.662721 0.126013
vt 0.046613 0.355463
vt 0.048871 0.356130
vt 0.050106 0.354844
vt 0.421667 0.351731
vt 0.421227 0.347666
vt 0.417720 0.352188
vt 0.133232 0.318285
vt 0.619063 0.429407
vt 0.616188 0.424811
vt 0.623643 0.430408
vt 0.615887 0.431007
vt 0.615788 0.433049
vt 0.548952 0.148130
vt 0.546801 0.141913
vt 0.548913 0.145608
vt 0.182536 0.001241
vt 0.181819 0.000000
vt 0.025145 0.333630
vt 0.800778 0.167451
vt 0.801929 0.167852
vt 0.897316 0.055285
vt 0.892133 0.310017
vt 0.308395 0.150722
vt 0.747404 0.353212
vt 0.981980 0.140992
vt 0.757445 0.077749
vt 0.302923 0.149402
vt 0.800441 0.361921
vt 0.092009 0.462338
vt 0.089941 0.454691
vt 0.168695 0.118085
vt 0.724215 0.098501
vt 0.214600 0.083933
vt 0.301199 0.149000
vt 0.303529 0.149550
vt 0.167988 0.115417
vt 0.339119 0.108345
vt 0.219237 0.163510
vt 0.334354 0.092599
vt 0.188744 0.095410
vt 0.168545 0.117518
vt 0.309410 0.150963
vt 0.218701 0.163428
vt 0.306749 0.150327
vt 0.222581 0.125937
vt 0.296634 0.123039
s 1
f 10/1/1 177/2/2 12/3/3
f 47/4/4 29/5/5 57/6/6
f 114/7/7 167/8/8 137/9/9
f 137/9/9 167/8/8 128/10/10
f 72/11/11 44/12/12 163/13/13
f 163/13/13 44/12/12 84/14/14
f 46/15/15 86/16/16 96/17/17
f 39/18/18 164/19/19 119/20/20
f 105/21/21 164/19/19 39/18/18
f 38/22/22 88/23/23 105/21/21
f 82/24/24 99/25/25 162/26/26
f 162/26/26 99/25/25 35/27/27
f 90/28/28 35/27/27 99/25/25
f 58/29/29 174/30/30 163/13/13
f 51/31/31 113/32/32 101/33/33
f 162/26/26 2/34/34 82/24/24
f 23/35/35 3/36/36 162/26/26
f 54/37/37 123/38/38 126/39/39
f 69/40/40 115/41/41 108/42/42
f 20/43/43 64/44/44 59/45/45
f 62/46/46 133/47/47 60/48/48
f 109/49/49 70/50/50 174/30/30
f 14/51/51 127/52/52 122/53/53
f 13/54/54 127/52/52 14/51/51
f 125/55/55 8/56/56 17/57/57
f 12/58/3 178/59/58 5/60/59
f 24/61/60 7/62/61 6/63/62
f 16/64/63 173/65/64 134/66/65
f 94/67/66 175/68/67 18/69/68
f 106/70/69 88/23/23 42/71/70
f 80/72/71 97/73/72 86/16/16
f 44/12/12 72/11/11 32/74/73
f 38/22/22 74/75/74 89/76/75
f 64/44/44 166/77/76 59/45/45
f 31/78/77 112/79/78 73/80/79
f 80/72/71 40/81/80 78/82/81
f 67/83/82 41/84/83 102/85/84
f 124/86/85 53/87/86 111/88/87
f 135/89/88 116/90/89 164/19/19
f 132/91/90 3/36/36 23/35/35
f 124/86/85 110/92/91 28/93/92
f 180/94/93 185/95/94 161/96/95
f 172/97/96 184/98/97 171/99/98
f 27/100/99 14/51/51 122/53/53
f 143/101/100 9/102/101 48/103/102
f 2/104/34 4/105/103 1/106/104
f 65/107/105 18/108/68 19/109/106
f 165/110/107 23/35/35 22/111/108
f 26/112/109 25/113/110 166/114/76
f 29/115/5 28/116/92 179/117/111
f 139/118/112 163/13/13 140/119/113
f 46/120/15 44/121/12 45/122/114
f 60/48/48 144/123/115 59/45/45
f 70/50/50 71/124/116 174/30/30
f 95/125/117 93/126/118 94/67/66
f 113/32/32 149/127/119 68/128/120
f 121/129/121 151/130/122 157/131/123
f 125/132/55 13/133/54 182/134/124
f 125/132/55 5/60/59 8/135/56
f 14/51/51 27/100/99 11/136/125
f 134/137/65 137/9/9 16/138/63
f 28/116/92 122/139/53 124/140/85
f 18/141/68 36/142/126 19/109/106
f 52/143/127 51/31/31 159/144/128
f 91/145/129 33/146/130 90/147/28
f 46/15/15 96/17/17 100/148/131
f 32/74/73 45/122/114 44/121/12
f 6/63/62 25/113/110 24/61/60
f 176/149/132 188/150/133 152/151/134
f 29/5/5 47/4/4 28/152/92
f 47/4/4 27/153/99 28/152/92
f 20/154/43 145/155/135 64/156/44
f 102/85/84 101/33/33 68/128/120
f 102/85/84 68/128/120 69/40/40
f 78/157/81 79/158/136 97/73/72
f 80/72/71 86/16/16 85/159/137
f 89/76/75 79/160/136 78/161/81
f 82/162/24 81/163/138 99/164/25
f 22/111/108 23/35/35 34/165/139
f 33/166/130 23/35/35 162/26/26
f 31/78/77 104/167/140 87/168/141
f 104/167/140 103/169/142 87/168/141
f 87/168/141 103/169/142 85/159/137
f 21/170/143 94/67/66 18/69/68
f 23/35/35 165/110/107 132/91/90
f 165/110/107 133/47/47 132/91/90
f 108/42/42 107/171/144 69/40/40
f 69/40/40 107/171/144 67/83/82
f 19/172/106 118/173/145 65/107/105
f 59/45/45 166/77/76 60/48/48
f 151/174/122 120/175/146 158/176/147
f 125/177/55 129/178/148 13/179/54
f 129/178/148 128/180/10 126/181/39
f 129/178/148 126/181/39 13/179/54
f 12/3/3 11/182/125 48/103/102
f 172/97/96 190/183/149 184/98/97
f 168/184/150 6/185/62 181/186/151
f 12/58/3 5/60/59 182/134/124
f 171/99/98 10/1/1 172/97/96
f 61/187/152 157/188/123 62/46/46
f 157/188/123 133/47/47 62/46/46
f 101/33/33 104/167/140 159/144/128
f 74/75/74 146/189/153 79/160/136
f 91/145/129 90/190/28 76/191/154
f 90/190/28 77/192/155 146/193/153
f 93/194/118 91/145/129 76/191/154
f 72/11/11 163/13/13 71/124/116
f 65/107/105 118/173/145 66/195/156
f 143/101/100 56/196/157 120/175/146
f 173/65/64 15/197/158 50/198/159
f 15/197/158 49/199/160 50/198/159
f 168/184/150 191/200/161 169/201/162
f 164/19/19 148/202/163 135/89/88
f 45/203/114 138/204/164 86/16/16
f 82/205/24 2/206/34 83/207/165
f 84/14/14 83/207/165 163/13/13
f 140/119/113 83/207/165 1/208/104
f 89/76/75 88/23/23 38/22/22
f 138/204/164 31/78/77 87/168/141
f 73/80/79 111/88/87 159/144/128
f 137/9/9 149/127/119 114/7/7
f 117/209/166 50/198/159 150/210/167
f 144/123/115 22/111/108 160/211/168
f 25/212/110 63/213/169 166/77/76
f 163/13/13 139/118/112 58/29/29
f 57/6/6 143/101/100 47/4/4
f 47/4/4 143/101/100 48/103/102
f 127/52/52 126/39/39 123/38/38
f 123/38/38 54/37/37 142/214/170
f 55/215/171 114/7/7 51/31/31
f 114/7/7 113/32/32 51/31/31
f 49/199/160 26/112/109 50/198/159
f 4/105/103 56/196/157 140/119/113
f 191/200/161 130/216/172 199/217/173
f 183/218/174 130/216/172 187/219/175
f 188/150/133 196/220/176 197/221/177
f 185/95/94 152/151/134 153/94/178
f 185/95/94 153/94/178 154/96/179
f 184/98/97 156/222/180 183/223/174
f 197/221/177 200/224/181 192/225/182
f 154/96/179 153/94/178 193/96/183
f 130/216/172 195/226/184 194/227/185
f 155/228/186 186/229/187 156/222/180
f 201/230/188 214/231/189 155/228/186
f 200/224/181 211/232/190 212/233/191
f 195/226/184 203/234/192 210/235/193
f 214/231/189 225/236/194 205/237/195
f 215/238/196 232/239/197 214/231/189
f 234/240/198 209/241/199 242/242/200
f 229/243/201 235/244/202 230/245/203
f 230/245/203 235/244/202 236/246/204
f 233/247/205 241/248/206 240/249/207
f 223/250/208 209/241/199 228/235/209
f 233/247/205 240/249/207 229/243/201
f 222/251/210 221/252/211 220/253/212
f 236/246/204 235/244/202 206/254/213
f 239/255/214 238/256/215 237/257/216
f 218/258/217 243/259/218 237/260/216
f 240/249/207 206/254/213 235/244/202
f 236/246/204 206/254/213 218/261/217
f 222/262/210 220/263/212 209/241/199
f 10/1/1 171/99/98 177/2/2
f 48/103/102 11/182/125 27/153/99
f 49/199/160 15/197/158 7/62/61
f 128/180/10 55/264/171 126/181/39
f 148/202/163 108/42/42 115/41/41 136/265/219
f 85/159/137 103/169/142 41/84/83
f 70/50/50 112/79/78 71/124/116
f 30/266/220 71/124/116 112/79/78
f 93/194/118 92/267/221 34/268/139 91/145/129
f 67/83/82 107/171/144 42/71/70
f 89/76/75 74/75/74 79/160/136
f 161/96/95 121/269/121 61/187/152 180/94/93
f 90/28/28 33/270/130 35/27/27
f 162/26/26 3/36/36 2/34/34
f 32/271/73 138/204/164 45/203/114
f 90/190/28 98/272/222 77/192/155
f 89/76/75 78/161/81 43/273/223
f 22/111/108 34/165/139 92/274/221
f 187/219/175 191/200/161 168/184/150 178/59/58
f 61/187/152 176/149/132 180/94/93
f 109/49/49 57/6/6 29/5/5 179/275/111
f 63/213/169 60/48/48 166/77/76
f 178/59/58 168/184/150 181/186/151 5/60/59
f 57/6/6 109/49/49 174/30/30
f 159/144/128 111/88/87 53/87/86
f 131/276/224 120/175/146 56/196/157
f 37/277/225 18/69/68 175/68/67
f 75/278/226 37/277/225 175/68/67
f 170/279/227 176/149/132 63/213/169 25/212/110
f 49/199/160 7/62/61 24/61/60
f 10/1/1 12/3/3 48/103/102
f 116/90/89 134/66/65 173/65/64
f 187/219/175 178/59/58 177/280/2 183/218/174
f 173/65/64 50/198/159 117/209/166
f 76/191/154 175/68/67 94/67/66
f 19/109/106 36/142/126 119/20/20
f 42/71/70 88/23/23 43/281/223
f 98/282/222 79/160/136 77/283/155
f 79/160/136 146/189/153 77/283/155
f 26/284/109 166/77/76 64/44/44
f 73/80/79 104/167/140 31/78/77
f 85/159/137 40/81/80 80/72/71
f 100/285/131 81/163/138 46/286/15
f 10/1/1 121/129/121 172/97/96
f 121/129/121 161/287/95 172/97/96
f 25/212/110 6/185/62 169/201/162
f 6/185/62 168/184/150 169/201/162
f 143/101/100 120/175/146 9/102/101
f 2/104/34 3/288/36 4/105/103
f 7/289/61 181/290/151 6/289/62
f 8/135/56 181/290/151 7/289/61
f 8/135/56 5/60/59 181/290/151
f 12/291/3 182/134/124 11/292/125
f 14/293/51 182/134/124 13/133/54
f 11/292/125 182/134/124 14/293/51
f 173/294/64 17/57/57 15/295/158
f 16/296/63 17/57/57 173/294/64
f 20/154/43 18/108/68 65/107/105
f 21/297/143 18/108/68 20/154/43
f 24/61/60 25/113/110 26/112/109
f 138/298/164 30/299/220 31/78/77
f 32/300/73 30/299/220 138/298/164
f 35/301/27 33/302/130 162/26/26
f 37/303/225 38/304/22 36/305/126
f 39/18/18 36/305/126 38/304/22
f 41/84/83 141/306/228 40/307/80
f 43/308/223 141/306/228 42/309/70
f 40/307/80 141/306/228 43/308/223
f 52/310/127 142/311/170 51/312/31
f 53/313/86 142/311/170 52/310/127
f 55/264/171 142/311/170 54/314/37
f 51/312/31 142/311/170 55/264/171
f 56/196/157 143/101/100 139/118/112
f 58/29/29 143/101/100 57/6/6
f 58/29/29 139/118/112 143/101/100
f 59/45/45 144/123/115 160/211/168
f 63/213/169 61/187/152 62/46/46
f 145/155/135 65/107/105 66/195/156
f 74/315/74 75/278/226 146/316/153
f 76/317/154 146/316/153 75/278/226
f 81/318/138 83/319/165 84/14/14
f 82/320/24 83/319/165 81/318/138
f 138/204/164 85/159/137 86/16/16
f 87/168/141 85/159/137 138/204/164
f 92/321/221 93/126/118 95/125/117
f 97/73/72 147/322/229 96/323/17
f 98/324/222 147/322/229 97/73/72
f 100/325/131 147/322/229 99/326/25
f 96/323/17 147/322/229 100/325/131
f 102/85/84 104/167/140 101/33/33
f 103/169/142 104/167/140 102/85/84
f 106/70/69 108/42/42 105/21/21
f 107/171/144 108/42/42 106/70/69
f 164/19/19 108/42/42 148/202/163
f 105/21/21 108/42/42 164/19/19
f 109/49/49 111/88/87 112/79/78
f 114/7/7 149/127/119 113/32/32
f 116/90/89 150/210/167 119/20/20
f 117/209/166 150/210/167 116/90/89
f 119/20/20 150/210/167 118/173/145
f 124/327/85 122/328/53 123/329/38
f 127/330/52 13/133/54 126/331/39
f 176/149/132 170/279/227 188/150/133
f 37/277/225 75/278/226 74/315/74 38/332/22
f 133/47/47 158/176/147 132/91/90
f 157/188/123 158/176/147 133/47/47
f 134/137/65 136/333/219 137/9/9
f 135/334/88 136/333/219 134/137/65
f 125/132/55 182/134/124 5/60/59
f 17/57/57 129/335/148 125/55/55
f 28/116/92 27/100/99 122/53/53
f 18/141/68 37/336/225 36/142/126
f 159/144/128 51/31/31 101/33/33
f 92/274/221 160/211/168 22/111/108
f 1/208/104 4/105/103 140/119/113
f 91/145/129 34/268/139 33/146/130
f 190/183/149 172/97/96 161/287/95 189/337/230
f 78/161/81 40/338/80 43/273/223
f 158/176/147 4/105/103 3/36/36 132/91/90
f 47/4/4 48/103/102 27/153/99
f 48/103/102 9/102/101 10/1/1
f 54/314/37 126/181/39 55/264/171
f 151/130/122 121/129/121 10/1/1 9/102/101
f 4/105/103 158/176/147 131/276/224
f 157/188/123 61/187/152 121/269/121
f 64/156/44 145/155/135 26/339/109
f 145/155/135 66/195/156 26/112/109
f 20/154/43 65/107/105 145/155/135
f 41/84/83 67/83/82 141/306/228
f 141/306/228 67/83/82 42/71/70
f 67/83/82 102/85/84 69/40/40
f 52/143/127 159/144/128 53/87/86
f 97/73/72 80/72/71 78/157/81
f 97/73/72 79/158/136 98/324/222
f 106/70/69 105/21/21 88/23/23
f 94/67/66 93/194/118 76/191/154
f 99/164/25 81/163/138 100/285/131
f 34/165/139 23/35/35 33/166/130
f 21/170/143 95/125/117 94/67/66
f 59/45/45 160/211/168 20/43/43
f 109/49/49 112/79/78 70/50/50
f 30/266/220 112/79/78 31/78/77
f 110/92/91 124/86/85 111/88/87
f 113/32/32 68/128/120 101/33/33
f 164/19/19 116/90/89 119/20/20
f 19/109/106 119/20/20 118/173/145
f 133/47/47 165/110/107 60/48/48
f 157/188/123 151/174/122 158/176/147
f 158/176/147 120/175/146 131/276/224
f 191/200/161 188/150/133 170/279/227 169/201/162
f 151/130/122 9/102/101 120/175/146
f 129/178/148 17/340/57 128/10/10
f 17/340/57 16/138/63 128/10/10
f 114/7/7 55/215/171 167/8/8
f 17/57/57 8/56/56 15/295/158
f 15/295/158 8/56/56 7/62/61
f 25/212/110 169/201/162 170/279/227
f 161/287/95 185/341/94 189/337/230
f 183/223/174 177/2/2 171/99/98 184/98/97
f 185/95/94 180/94/93 176/149/132 152/151/134
f 173/65/64 117/209/166 116/90/89
f 135/89/88 134/66/65 116/90/89
f 159/144/128 104/167/140 73/80/79
f 174/30/30 58/29/29 57/6/6
f 175/68/67 76/191/154 75/278/226
f 43/281/223 88/23/23 89/342/75
f 86/16/16 97/73/72 96/17/17
f 76/191/154 90/190/28 146/193/153
f 71/124/116 163/13/13 174/30/30
f 42/71/70 107/171/144 106/70/69
f 46/286/15 81/163/138 84/14/14 44/12/12
f 61/187/152 63/213/169 176/149/132
f 128/10/10 16/138/63 137/9/9
f 177/280/2 178/59/58 12/58/3
f 28/93/92 110/92/91 179/275/111
f 110/92/91 111/88/87 179/275/111
f 179/275/111 111/88/87 109/49/49
f 135/89/88 148/202/163 136/265/219
f 86/16/16 46/15/15 45/203/114
f 2/206/34 1/208/104 83/207/165
f 163/13/13 83/207/165 140/119/113
f 71/124/116 30/266/220 32/74/73 72/11/11
f 40/81/80 85/159/137 41/84/83
f 99/343/25 147/344/229 90/190/28
f 90/190/28 147/344/229 98/272/222
f 103/169/142 102/85/84 41/84/83
f 38/22/22 105/21/21 39/18/18
f 95/125/117 160/211/168 92/274/221
f 118/173/145 150/210/167 50/198/159 66/195/156
f 73/80/79 112/79/78 111/88/87
f 21/170/143 20/43/43 160/211/168 95/125/117
f 115/41/41 69/40/40 149/127/119
f 149/127/119 69/40/40 68/128/120
f 137/9/9 136/265/219 149/127/119
f 149/127/119 136/265/219 115/41/41
f 36/305/126 39/18/18 119/20/20
f 22/111/108 144/123/115 60/48/48 165/110/107
f 123/38/38 142/214/170 53/87/86 124/86/85
f 62/46/46 60/48/48 63/213/169
f 139/118/112 140/119/113 56/196/157
f 122/53/53 127/52/52 123/38/38
f 198/345/231 196/220/176 188/150/133 191/200/161
f 55/264/171 128/180/10 167/346/8
f 49/199/160 24/61/60 26/112/109
f 50/198/159 26/112/109 66/195/156
f 4/105/103 131/276/224 56/196/157
f 191/200/161 199/217/173 198/345/231
f 183/218/174 156/347/180 130/216/172
f 189/337/230 185/341/94 154/348/179
f 189/337/230 154/348/179 190/183/149
f 152/151/134 188/150/133 197/221/177
f 201/230/188 190/183/149 154/348/179 193/349/183
f 191/200/161 187/219/175 130/216/172
f 184/98/97 190/183/149 155/228/186
f 184/98/97 155/228/186 156/222/180
f 202/350/232 200/224/181 196/220/176 198/345/231
f 202/350/232 198/345/231 199/217/173 194/227/185
f 152/151/134 197/221/177 192/225/182
f 190/183/149 201/230/188 155/228/186
f 199/217/173 130/216/172 194/227/185
f 153/94/178 152/151/134 192/225/182
f 197/221/177 196/220/176 200/224/181
f 195/226/184 130/216/172 156/347/180 186/347/187
f 205/237/195 204/351/233 186/229/187 155/228/186
f 207/94/234 153/94/178 192/225/182 208/352/235
f 186/229/187 204/351/233 203/353/192
f 213/96/236 193/96/183 153/94/178 207/94/234
f 217/354/237 216/355/238 202/350/232 194/227/185
f 155/228/186 214/231/189 205/237/195
f 217/354/237 194/227/185 195/226/184 210/235/193
f 213/356/236 215/238/196 201/230/188 193/349/183
f 195/226/184 186/347/187 203/234/192
f 208/352/235 192/225/182 200/224/181 212/233/191
f 216/355/238 211/232/190 200/224/181 202/350/232
f 225/236/194 224/351/239 204/351/233 205/237/195
f 201/230/188 215/238/196 214/231/189
f 214/231/189 232/239/197 225/236/194
f 229/243/201 230/245/203 212/233/191 211/232/190
f 223/353/208 203/353/192 204/351/233 224/351/239
f 234/240/198 233/247/205 216/355/238 217/354/237
f 226/94/240 207/94/234 208/352/235 227/357/241
f 232/239/197 215/238/196 213/356/236 231/358/242
f 227/357/241 208/352/235 212/233/191 230/245/203
f 231/96/242 213/96/236 207/94/234 226/94/240
f 223/250/208 228/235/209 210/235/193 203/234/192
f 233/247/205 229/243/201 211/232/190 216/355/238
f 234/240/198 217/354/237 210/235/193 228/235/209
f 222/251/210 224/351/239 225/236/194 221/252/211
f 241/248/206 233/247/205 234/240/198 242/242/200
f 223/353/208 224/351/239 222/251/210
f 223/250/208 222/262/210 209/241/199
f 219/94/243 226/94/240 227/357/241 236/246/204
f 229/243/201 240/249/207 235/244/202
f 239/255/214 232/239/197 231/358/242 238/256/215
f 219/94/243 238/96/215 231/96/242 226/94/240
f 227/357/241 230/245/203 236/246/204
f 239/255/214 221/252/211 225/236/194 232/239/197
f 234/240/198 228/235/209 209/241/199
f 219/94/243 236/246/204 218/261/217 238/96/215
f 241/248/206 242/242/200 206/254/213 240/249/207
f 242/242/200 209/241/199 220/263/212 243/259/218
f 206/359/213 243/259/218 218/258/217
f 237/260/216 243/259/218 220/263/212
f 238/256/215 218/360/217 237/257/216
f 237/257/216 220/253/212 221/252/211 239/255/214
f 243/259/218 206/254/213 242/242/200
