# Blender 5.1.1
# www.blender.org
mtllib glass3.mtl
o Cube.001
v -0.028343 -0.342193 -0.126150
v -0.041619 -0.258893 -0.616658
v -0.431709 2.101084 0.616908
v 0.059655 -0.592226 0.979243
v 0.044809 -0.298045 -0.250197
v 0.038317 -0.240018 -0.612897
v -0.271234 2.262136 0.108325
v -0.308241 2.150795 0.332507
v -0.139822 0.206699 -0.578050
v -0.189596 0.492054 -0.554310
v -0.251443 0.970561 -0.512432
v -0.277437 1.276109 -0.483446
v -0.291185 1.574424 -0.453110
v -0.295157 1.916443 -0.413859
v -0.284323 2.252631 -0.371489
v -0.423468 1.723248 0.660599
v -0.300135 0.688006 0.796353
v -0.146849 0.039746 0.888485
v -0.036887 -0.278914 -0.496914
v 0.016076 -0.488133 0.584037
v -0.004660 -0.434665 0.380925
v -0.195537 1.261686 -0.465682
v -0.211394 1.596302 -0.427191
v -0.213631 1.916825 -0.386130
v -0.204491 2.196222 -0.347084
v -0.303905 1.246130 0.732606
v -0.283675 1.085570 0.752583
v -0.145605 0.346863 0.849355
v -0.077850 0.087719 0.884522
v 0.039911 -0.253007 -0.529767
v 0.081882 -0.434362 0.507484
v 0.129726 -0.550965 0.971767
v 0.054174 -0.344555 0.035509
v 0.069840 -0.403136 0.379465
v -0.260677 2.583918 -0.324272
v -0.180097 2.537361 -0.294834
v -0.348869 2.075053 0.637437
v -0.373184 2.226473 0.198548
v -0.290777 2.195160 0.219593
v -0.408562 2.140367 0.439207
v -0.353908 2.295167 0.086539
v -0.301659 2.483118 -0.151885
v -0.206133 2.477622 -0.189021
v -0.221490 2.438688 -0.120589
v 0.010012 -0.205010 0.924420
v -0.203315 0.421288 0.836877
v -0.349469 0.978476 0.756379
v -0.403048 1.425154 0.697399
v 0.075419 -0.516306 0.767502
v -0.391883 2.177391 0.319935
v -0.256693 0.934514 -0.411797
v -0.285912 1.227380 -0.373005
v -0.304439 1.510918 -0.332336
v -0.318980 1.882124 -0.248907
v -0.318057 2.174515 -0.190509
v -0.348802 2.016118 -0.017467
v -0.112750 0.047163 -0.498761
v -0.107637 -0.028811 -0.174653
v -0.190907 0.328814 -0.020353
v -0.241686 0.610675 -0.021892
v -0.308701 1.086902 0.004693
v -0.334425 1.367079 0.015802
v -0.357142 1.703769 0.065156
v -0.394891 1.478255 0.547882
v -0.331711 2.098269 -0.119012
v -0.326723 1.794021 -0.191119
v -0.287556 1.170577 -0.313541
v -0.260346 0.919787 -0.351622
v -0.366561 1.563913 0.204304
v -0.108613 -0.074922 0.343264
v -0.191309 0.255122 0.380113
v -0.244076 0.507221 0.365399
v -0.323030 0.981390 0.349416
v -0.353930 1.251397 0.333955
v -0.380053 1.565466 0.334642
v -0.394536 1.872034 0.344947
v -0.276553 0.801102 0.056740
v -0.308568 1.039458 0.067482
v -0.336219 1.302914 0.087865
v -0.363641 1.657178 0.139909
v -0.367085 1.980042 0.116106
v -0.391302 1.567976 0.444506
v -0.315601 0.900721 0.415140
v -0.277957 0.680515 0.385611
v -0.276910 1.699419 0.097114
v -0.202337 0.890299 -0.015411
v -0.033639 0.051437 -0.453411
v -0.106588 0.447716 -0.461663
v -0.149352 0.694156 -0.365858
v -0.184853 0.929786 -0.283184
v -0.230064 1.341491 -0.177125
v -0.254197 1.673990 -0.085043
v -0.266835 1.946660 0.004905
v -0.230929 2.144147 -0.198874
v -0.233584 1.822912 -0.252772
v -0.203890 1.235110 -0.367617
v -0.108618 0.493174 -0.544377
v -0.062731 0.229029 -0.569033
v -0.162710 0.811532 -0.394672
v -0.206027 1.184216 -0.311187
v -0.245416 1.772651 -0.165401
v -0.250965 2.051587 -0.091072
v -0.304105 1.597968 0.379640
v -0.211914 0.784554 0.343515
v -0.009518 -0.127686 0.204953
v -0.040582 0.028084 -0.102141
v -0.109600 0.330321 -0.016422
v -0.161735 0.592915 0.058868
v -0.201722 0.826401 0.107574
v -0.255025 1.234046 0.166553
v -0.284343 1.560320 0.218365
v -0.300321 1.831661 0.270539
v -0.110053 0.256949 0.395347
v -0.166169 0.504163 0.465182
v -0.245274 0.938864 0.498431
v -0.276409 1.151039 0.528756
v -0.312817 1.477615 0.557086
v -0.339652 1.697240 0.679161
v -0.243014 0.965151 0.408248
v -0.305953 1.542849 0.433934
v -0.320776 1.812908 0.447844
v -0.290242 1.900195 0.183017
v -0.280066 1.634248 0.146281
v -0.227942 1.053701 0.066085
v -0.189356 0.777534 0.026841
v -0.342896 1.417809 0.708143
v -0.212422 0.653160 0.808554
v -0.326494 2.406047 -0.043578
v -0.246073 2.362436 -0.011413
v -0.352255 1.428869 0.146425
v -0.326528 1.156862 0.129610
v -0.240205 0.579025 0.039043
v -0.379597 1.939646 0.214848
v -0.317048 1.879332 0.397937
v -0.288648 1.381672 0.383487
v -0.269906 1.179144 0.401637
v -0.252718 1.062582 0.365599
v -0.167539 0.530550 0.373888
v -0.205005 0.735796 0.381632
v -0.325386 2.113748 0.455064
v -0.237856 1.982209 -0.386360
v -0.206502 0.884238 -0.514196
v -0.058894 -0.253473 0.930369
v -0.229991 0.361520 0.842365
v -0.303152 1.621964 -0.367633
v -0.227547 0.743983 -0.501716
v -0.287290 1.309430 -0.407678
v -0.305058 2.003569 -0.329479
v -0.303023 1.744963 -0.377822
v -0.220794 0.567617 -0.253095
v -0.183630 0.359566 -0.290559
v -0.158907 0.213362 -0.221245
v -0.274142 0.869801 -0.107496
v -0.304574 1.140932 -0.097853
v -0.252116 0.478648 0.674659
v -0.063181 -0.242997 0.586862
v -0.200583 0.278567 0.483209
v -0.171763 0.145147 0.616510
v -0.370328 1.177962 0.647355
v -0.294711 0.709635 0.609477
v -0.323086 1.533986 -0.177327
v -0.303621 1.275368 -0.227854
v -0.228952 0.689546 -0.392366
v -0.338446 1.839252 -0.104014
v -0.324757 1.606766 -0.185439
v -0.226068 0.462298 0.165540
v -0.084721 -0.150182 0.123406
v -0.184075 0.258177 0.151951
v -0.155146 0.119204 0.229879
v -0.273786 0.696099 0.270414
v -0.321209 1.027959 0.251540
v -0.286340 0.810407 0.184550
v -0.341591 1.400210 0.064398
v -0.276719 0.830813 0.004726
v -0.313818 1.106955 0.041729
v -0.347902 1.511169 0.056688
v -0.312790 1.558267 -0.274595
v -0.316145 1.673627 -0.270101
v -0.185671 0.435126 -0.475053
v -0.303298 1.376338 -0.290415
v -0.227347 0.708930 -0.446743
v -0.345208 1.067806 0.496199
v -0.243726 0.486373 0.442862
v -0.296622 0.759842 0.472842
v -0.406497 1.844260 0.454766
v -0.378437 1.366247 0.479545
v -0.353454 1.166225 0.438520
v -0.363027 1.300420 0.380810
v -0.329127 1.008211 0.385229
v -0.389979 1.644079 0.383573
v -0.371321 1.406291 0.362663
v -0.136925 0.553222 -0.252008
v -0.100128 0.351506 -0.296638
v -0.251845 1.355073 0.026490
v -0.222554 1.131199 -0.083273
v -0.221439 1.617118 -0.346012
v -0.145964 0.739668 -0.489439
v -0.169421 0.960605 -0.497611
v -0.227193 1.874742 -0.295939
v -0.217109 1.457497 -0.347846
v -0.240223 1.534973 -0.173789
v -0.212300 1.179134 -0.241439
v -0.243123 2.142009 -0.122753
v -0.242851 1.883605 -0.181553
v -0.233946 1.631599 -0.247344
v -0.224287 1.417617 -0.271835
v -0.174792 0.926561 -0.397962
v -0.143150 0.455172 0.168613
v -0.072569 0.118299 0.229824
v -0.101973 0.258383 0.146932
v -0.024643 -0.055837 0.043733
v -0.271540 1.243367 0.341115
v -0.239704 1.024465 0.263477
v -0.139754 0.353776 0.611839
v -0.222464 0.756474 0.624866
v -0.005261 -0.155268 0.526732
v -0.060328 0.049378 0.455607
v -0.289480 1.284312 0.499463
v -0.295616 1.366919 0.476031
v -0.334510 1.806206 0.569078
v -0.197477 0.674353 0.432746
v -0.236053 1.162152 0.031268
v -0.163329 0.625364 -0.010478
v -0.285005 1.978105 0.140343
v -0.265181 1.477714 0.078294
v -0.250374 1.270451 0.077722
v -0.268606 1.407419 0.154191
v -0.233159 1.058393 0.124644
vn 0.1011 0.1032 -0.9895
vn 0.1782 0.1146 -0.9773
vn 0.0337 0.0987 -0.9946
vn 0.1675 0.1075 -0.9800
vn 0.1686 0.1074 -0.9798
vn 0.0949 0.0990 -0.9906
vn -0.1236 0.1107 0.9861
vn -0.0675 0.1211 0.9903
vn -0.1594 0.1055 0.9816
vn -0.0692 0.1182 0.9906
vn -0.1648 0.1073 0.9805
vn -0.2034 0.1067 0.9733
vn -0.2065 0.1071 0.9726
vn -0.0840 0.1099 0.9904
vn 0.0081 0.1409 0.9900
vn -0.0616 0.1184 0.9911
vn -0.1815 0.1035 0.9779
vn -0.1739 0.1001 0.9797
vn -0.3017 0.0734 0.9506
vn 0.3068 -0.9364 -0.1703
vn 0.2562 -0.9527 -0.1635
vn 0.3310 -0.9264 -0.1798
vn 0.4363 -0.8592 -0.2673
vn 0.4072 -0.8731 -0.2681
vn 0.3975 -0.8784 -0.2654
vn 0.3790 -0.8994 -0.2180
vn 0.4630 -0.8447 -0.2684
vn 0.4626 -0.8456 -0.2665
vn 0.2088 0.8618 0.4622
vn 0.2090 0.8613 0.4632
vn 0.1544 0.7868 0.5976
vn 0.1602 0.7867 0.5962
vn 0.2470 0.9289 0.2760
vn 0.2351 0.9041 0.3568
vn 0.2346 0.9052 0.3543
vn 0.2420 0.9301 0.2764
vn -0.9928 -0.0919 -0.0774
vn -0.9902 -0.1225 -0.0675
vn -0.9930 -0.0736 -0.0925
vn -0.9903 -0.0977 -0.0988
vn -0.9870 -0.1488 -0.0608
vn -0.9918 -0.0087 -0.1271
vn -0.9936 -0.0375 -0.1064
vn -0.9927 -0.0591 -0.1048
vn -0.9910 0.0019 -0.1337
vn -0.9795 -0.1593 -0.1235
vn -0.9795 -0.1964 -0.0457
vn -0.9911 0.0047 -0.1332
vn -0.9925 -0.0227 -0.1198
vn 0.9875 0.1241 0.0967
vn 0.9859 0.1439 0.0854
vn 0.9860 0.1634 0.0336
vn 0.9903 0.1131 0.0813
vn 0.9902 0.0817 0.1130
vn 0.9931 0.0571 0.1028
vn 0.9894 0.1022 0.1036
vn 0.9831 0.1822 0.0188
vn 0.2440 0.9411 0.2339
vn 0.2391 0.9431 0.2309
vn 0.2572 0.8101 0.5268
vn 0.2750 0.8067 0.5231
vn 0.2653 0.8072 0.5274
vn 0.3665 0.1123 -0.9236
vn 0.3343 0.1150 -0.9354
vn 0.2809 0.1180 -0.9525
vn 0.2557 0.1191 -0.9594
vn 0.3369 0.1215 -0.9337
vn 0.1884 0.1202 -0.9747
vn 0.2038 0.1259 -0.9709
vn 0.1735 0.1206 -0.9774
vn -0.0702 0.1228 0.9899
vn 0.0145 0.1415 0.9898
vn -0.0420 0.1283 0.9908
vn -0.1641 0.1098 0.9803
vn 0.2427 -0.9563 -0.1630
vn 0.2468 -0.9556 -0.1606
vn 0.2339 -0.9599 -0.1545
vn 0.3772 -0.9012 -0.2133
vn -0.9964 -0.0338 -0.0771
vn -0.9928 -0.0627 -0.1016
vn -0.9952 0.0031 -0.0979
vn -0.9872 0.0392 -0.1549
vn -0.9910 -0.0167 -0.1329
vn -0.9928 -0.0488 -0.1096
vn -0.9907 -0.0939 -0.0984
vn -0.9796 0.0952 -0.1772
vn -0.9855 0.0643 -0.1573
vn -0.9820 0.0817 -0.1703
vn -0.9910 -0.1025 -0.0857
vn -0.9877 -0.1283 -0.0894
vn -0.9861 -0.1512 -0.0684
vn -0.9882 0.0502 -0.1449
vn -0.9896 0.0162 -0.1426
vn -0.9961 -0.0475 -0.0738
vn -0.9728 -0.2313 -0.0144
vn -0.9780 -0.2039 -0.0448
vn -0.9755 -0.2198 -0.0103
vn -0.9828 -0.1770 -0.0521
vn -0.9847 -0.1623 -0.0637
vn -0.9669 -0.2545 -0.0191
vn -0.9732 -0.2280 -0.0313
vn -0.9857 -0.1616 -0.0469
vn -0.9787 -0.2015 -0.0393
vn -0.9914 -0.0440 -0.1236
vn -0.9930 -0.0265 -0.1154
vn -0.9583 -0.2858 -0.0045
vn -0.9636 -0.2671 -0.0073
vn -0.9678 -0.2510 -0.0166
vn -0.9526 -0.3042 0.0080
vn -0.9822 -0.1809 -0.0514
vn -0.9806 -0.1909 -0.0444
vn -0.9869 -0.1513 -0.0557
vn -0.9768 -0.2107 -0.0396
vn -0.9727 -0.2302 -0.0295
vn -0.9527 -0.3039 0.0038
vn -0.9445 -0.3280 0.0178
vn -0.9882 -0.1359 -0.0703
vn -0.9908 -0.1201 -0.0624
vn -0.9921 -0.0849 -0.0920
vn -0.9918 -0.0981 -0.0816
vn -0.9920 -0.0681 -0.1060
vn -0.9915 -0.0833 -0.1002
vn -0.9902 -0.1095 -0.0863
vn -0.9959 -0.0151 -0.0889
vn -0.9921 -0.0252 -0.1230
vn -0.9942 -0.0564 -0.0911
vn -0.9908 -0.0032 -0.1356
vn -0.9828 -0.1192 -0.1411
vn -0.9878 0.0362 -0.1513
vn -0.9895 0.0317 -0.1413
vn -0.9904 0.0142 -0.1378
vn -0.9845 0.0638 -0.1635
vn -0.9669 -0.2546 -0.0189
vn -0.9719 -0.2329 -0.0332
vn -0.9767 -0.2112 -0.0368
vn -0.9874 -0.1453 -0.0630
vn -0.9852 -0.1649 -0.0479
vn -0.9891 -0.1235 -0.0805
vn -0.9818 -0.1831 -0.0502
vn -0.9746 -0.2205 -0.0389
vn -0.9808 -0.1945 0.0113
vn -0.9588 -0.2840 -0.0045
vn -0.9928 -0.0634 -0.1016
vn -0.9953 -0.0770 -0.0589
vn -0.9908 -0.1077 -0.0819
vn -0.9974 -0.0477 -0.0534
vn -0.9907 -0.0693 -0.1170
vn -0.9913 -0.0975 -0.0880
vn -0.9780 -0.1326 -0.1613
vn -0.9894 0.0205 -0.1437
vn -0.9701 -0.0376 0.2397
vn -0.9933 -0.0346 -0.1105
vn -0.9939 -0.0801 -0.0753
vn -0.9808 0.0024 -0.1952
vn -0.9888 -0.1246 -0.0822
vn -0.9853 -0.1520 -0.0778
vn -0.9835 -0.1737 -0.0502
vn -0.9903 -0.1172 -0.0743
vn -0.9933 -0.0342 -0.1107
vn -0.9937 -0.0694 -0.0877
vn -0.9895 -0.0998 -0.1046
vn -0.9785 -0.1979 -0.0578
vn -0.9784 -0.1724 -0.1143
vn -0.9926 -0.0219 -0.1196
vn -0.9926 -0.0581 -0.1064
vn -0.9912 -0.0092 -0.1324
vn -0.9930 -0.0534 -0.1049
vn -0.9936 -0.0815 -0.0784
vn -0.9880 -0.0982 -0.1192
vn -0.9935 -0.1037 -0.0472
vn -0.9877 -0.1399 -0.0699
vn -0.9887 -0.1272 -0.0793
vn 0.9902 0.1253 0.0610
vn 0.9903 0.1131 0.0807
vn 0.9925 0.0893 0.0834
vn 0.9821 0.1808 0.0532
vn 0.9855 0.1598 0.0574
vn 0.9799 0.1953 0.0406
vn 0.9861 0.1654 0.0140
vn 0.9769 0.2091 0.0431
vn 0.9724 0.2323 0.0219
vn 0.9750 0.2205 0.0275
vn 0.9852 0.1606 0.0592
vn 0.9874 0.1354 0.0819
vn 0.9906 0.0690 0.1181
vn 0.9911 0.0581 0.1195
vn 0.9889 -0.0302 0.1456
vn 0.9915 -0.0214 0.1282
vn 0.9922 0.0169 0.1236
vn 0.9939 0.0406 0.1028
vn 0.9926 0.0601 0.1056
vn 0.9935 0.0094 0.1135
vn 0.9912 0.0948 0.0928
vn 0.9878 0.1280 0.0892
vn 0.9868 0.1483 0.0645
vn 0.9924 0.1013 0.0696
vn 0.9926 0.0667 0.1014
vn 0.9822 -0.0758 0.1720
vn 0.9868 -0.0556 0.1523
vn 0.9806 -0.0871 0.1756
vn 0.9946 0.0907 0.0500
vn 0.9933 0.0355 0.1097
vn 0.9921 0.0779 0.0984
vn 0.9887 0.1109 0.1004
vn 0.9924 0.0237 0.1205
vn 0.9927 0.0076 0.1207
vn 0.9915 0.0430 0.1226
vn 0.9889 -0.0500 0.1400
vn 0.9901 -0.0215 0.1384
vn 0.9924 -0.0038 0.1232
vn 0.9914 0.0130 0.1301
vn 0.9698 0.2427 0.0242
vn 0.9767 0.2109 0.0387
vn 0.9658 0.2590 0.0150
vn 0.9868 0.1558 0.0442
vn 0.9871 0.1462 0.0652
vn 0.9903 0.1207 0.0691
vn 0.9803 0.1935 0.0405
vn 0.9708 0.2372 0.0371
vn 0.9741 0.2261 0.0086
vn 0.9826 0.1681 0.0789
vn 0.9895 0.0924 0.1112
vn 0.9830 0.1759 0.0536
vn 0.9868 0.1501 0.0610
vn 0.9904 0.1147 0.0773
vn 0.9722 0.2325 0.0263
vn 0.9734 0.2260 0.0380
vn 0.9805 0.1922 0.0400
vn 0.9931 0.0813 0.0841
vn 0.9941 0.0594 0.0906
vn 0.9844 0.1434 0.1022
vn 0.9874 0.1245 0.0977
vn 0.9552 0.2961 0.0032
vn 0.9545 0.2981 -0.0025
vn 0.9456 0.3250 -0.0158
vn 0.9777 0.2006 0.0617
vn 0.9652 0.2613 0.0126
vn 0.9906 0.1072 0.0849
vn 0.9905 0.0900 0.1041
vn 0.9934 0.0706 0.0909
vn 0.9943 0.0402 0.0992
vn 0.9896 0.0925 0.1106
vn 0.9881 0.1148 0.1024
vn 0.9888 0.1381 0.0570
vn 0.9915 0.0834 0.0997
vn 0.9911 0.0506 0.1232
vn 0.9929 0.0271 0.1155
vn 0.9924 0.1227 0.0116
vn 0.9931 0.0700 0.0943
vn 0.9926 0.0572 0.1067
vn 0.9935 0.0417 0.1058
vn 0.2250 0.7952 0.5631
vn 0.2212 0.7990 0.5591
vn 0.0768 0.1006 -0.9920
vn 0.2473 0.1133 -0.9623
vn 0.0236 0.0981 -0.9949
vn 0.2689 -0.9493 -0.1627
vn 0.1660 0.7618 0.6262
vn 0.9935 0.0170 0.1129
vn 0.9937 0.0377 0.1054
vn 0.9927 0.0254 0.1175
vn 0.9906 -0.0058 0.1369
vn 0.9916 0.0069 0.1292
vn 0.9610 0.2765 0.0093
vn 0.9808 0.1906 0.0405
vn -0.9872 0.0209 -0.1582
vn 0.3929 0.1022 -0.9139
vn 0.3871 0.1047 -0.9161
vn 0.3359 0.1191 -0.9343
vn -0.0729 0.1238 0.9896
vn 0.0116 0.1448 0.9894
vn 0.0215 0.1429 0.9895
vn 0.1606 0.7636 0.6255
vn -0.9868 -0.1486 -0.0646
vn -0.9900 -0.1256 -0.0643
vn -0.9916 -0.0908 -0.0920
vn -0.9728 -0.2306 -0.0211
vn -0.9652 -0.2610 -0.0140
vn -0.9806 -0.1885 -0.0540
vn 0.9735 0.2264 0.0318
vn 0.9701 0.2412 0.0256
vn 0.9912 -0.0064 0.1321
vn 0.9862 -0.0647 0.1524
vn 0.9778 -0.0983 0.1851
vn 0.9911 -0.0255 0.1306
vn 0.9804 0.1898 0.0535
vn 0.9878 -0.0414 0.1501
vn 0.9847 -0.0640 0.1620
vn 0.9648 0.2624 0.0166
vn 0.9650 0.2619 0.0149
vn 0.9583 0.2856 0.0073
vn 0.9921 -0.0115 0.1248
vn 0.9932 0.0101 0.1164
vn 0.9932 0.0195 0.1149
vn 0.9894 -0.0231 0.1434
vt 0.850026 0.567920
vt 0.845131 0.407593
vt 0.870967 0.676245
vt 0.832191 0.388659
vt 0.831344 0.316230
vt 0.840655 0.501235
vt 0.965920 0.252610
vt 0.950740 0.380188
vt 0.936615 0.154547
vt 0.939556 0.328179
vt 0.956584 0.151670
vt 0.898074 0.007496
vt 0.924659 0.000000
vt 0.928876 0.457385
vt 0.917211 0.524663
vt 0.935824 0.398040
vt 0.918264 0.092146
vt 0.933978 0.193728
vt 0.937028 0.230039
vt 0.968205 0.129670
vt 0.971470 0.031664
vt 0.995208 0.172853
vt 0.985483 0.366343
vt 0.968676 0.317539
vt 0.995649 0.297701
vt 0.967084 0.263771
vt 0.972829 0.422177
vt 1.000000 0.420612
vt 0.448621 0.815282
vt 0.421078 0.813467
vt 0.421448 0.780717
vt 0.449139 0.782266
vt 0.446545 0.881201
vt 0.420316 0.844771
vt 0.447757 0.849025
vt 0.419088 0.877763
vt 0.224624 0.279162
vt 0.230090 0.340934
vt 0.209027 0.247348
vt 0.213423 0.310967
vt 0.233339 0.396351
vt 0.192066 0.125819
vt 0.211252 0.194780
vt 0.193733 0.213430
vt 0.218838 0.120945
vt 0.238698 0.448251
vt 0.255520 0.508479
vt 0.164911 0.065761
vt 0.156798 0.135562
vt 0.685589 0.313708
vt 0.696605 0.334288
vt 0.688331 0.388225
vt 0.695634 0.285260
vt 0.691267 0.239304
vt 0.690490 0.189468
vt 0.679603 0.273084
vt 0.701601 0.400100
vt 0.444446 0.927828
vt 0.416872 0.925471
vt 0.418933 0.689210
vt 0.416872 0.657538
vt 0.444488 0.656121
vt 0.854578 0.081169
vt 0.863472 0.143799
vt 0.834447 0.245039
vt 0.862289 0.235775
vt 0.870062 0.158290
vt 0.859701 0.387573
vt 0.867909 0.497982
vt 0.858808 0.315959
vt 0.963427 0.392980
vt 0.924166 0.612212
vt 0.943393 0.534010
vt 0.945146 0.084622
vt 0.971834 0.000000
vt 0.999283 0.023421
vt 1.000000 0.001447
vt 0.994734 0.263816
vt 0.370421 0.241145
vt 0.377688 0.311699
vt 0.350823 0.198114
vt 0.339188 0.135756
vt 0.347570 0.226211
vt 0.357428 0.300498
vt 0.385146 0.383685
vt 0.342584 0.000000
vt 0.352373 0.079575
vt 0.294798 0.015830
vt 0.358239 0.387351
vt 0.382416 0.435465
vt 0.396901 0.495938
vt 0.302773 0.089617
vt 0.316760 0.160348
vt 0.337706 0.250352
vt 0.385481 0.670066
vt 0.383873 0.595521
vt 0.416872 0.671183
vt 0.327140 0.514083
vt 0.375960 0.505336
vt 0.287987 0.666999
vt 0.298441 0.597674
vt 0.254815 0.443818
vt 0.309392 0.544387
vt 0.296122 0.237894
vt 0.231453 0.187414
vt 0.099086 0.610542
vt 0.017018 0.531741
vt 0.087923 0.520564
vt 0.008809 0.596566
vt 0.086545 0.391572
vt 0.036992 0.387787
vt 0.046514 0.322933
vt 0.070341 0.441506
vt 0.122263 0.496337
vt 0.102457 0.666452
vt 0.000000 0.671183
vt 0.115621 0.314494
vt 0.075144 0.282081
vt 0.101548 0.217406
vt 0.061556 0.222752
vt 0.309157 0.300099
vt 0.331995 0.328286
vt 0.342156 0.387964
vt 0.277497 0.163705
vt 0.298513 0.221395
vt 0.326106 0.279610
vt 0.300775 0.178185
vt 0.353312 0.442931
vt 0.228694 0.048935
vt 0.282954 0.104135
vt 0.255034 0.118646
vt 0.264755 0.028954
vt 0.220502 0.611351
vt 0.190374 0.544742
vt 0.210158 0.516591
vt 0.199271 0.388253
vt 0.176735 0.410540
vt 0.180983 0.335036
vt 0.205530 0.469143
vt 0.149736 0.506552
vt 0.152269 0.449463
vt 0.155192 0.664003
vt 0.158788 0.207068
vt 0.243975 0.267655
vt 0.246831 0.332900
vt 0.233235 0.232431
vt 0.230995 0.257752
vt 0.236931 0.326555
vt 0.247160 0.391925
vt 0.197978 0.059854
vt 0.321516 0.209759
vt 0.322328 0.236727
vt 0.347988 0.317892
vt 0.367792 0.440991
vt 0.137595 0.356732
vt 0.122656 0.386437
vt 0.130867 0.294493
vt 0.127193 0.136968
vt 0.129344 0.201425
vt 0.119803 0.246438
vt 0.131797 0.450616
vt 0.146140 0.408741
vt 0.084493 0.069954
vt 0.071646 0.155544
vt 0.132552 0.068937
vt 0.145798 0.186622
vt 0.151094 0.242589
vt 0.146223 0.266202
vt 0.158764 0.279686
vt 0.154916 0.341227
vt 0.145323 0.333381
vt 0.583130 0.370111
vt 0.511598 0.372712
vt 0.565633 0.317494
vt 0.505403 0.506447
vt 0.518434 0.458103
vt 0.579806 0.498936
vt 0.583211 0.430881
vt 0.461631 0.582259
vt 0.438756 0.655391
vt 0.416872 0.656121
vt 0.461957 0.491591
vt 0.488666 0.430650
vt 0.595449 0.260990
vt 0.540759 0.272980
vt 0.483594 0.148574
vt 0.508107 0.154480
vt 0.473367 0.224789
vt 0.494869 0.253530
vt 0.463218 0.303982
vt 0.495200 0.216451
vt 0.454252 0.374962
vt 0.455809 0.425577
vt 0.440132 0.484770
vt 0.480862 0.378471
vt 0.489533 0.305867
vt 0.552852 0.015640
vt 0.533289 0.087643
vt 0.534003 0.009467
vt 0.523330 0.313318
vt 0.541682 0.228050
vt 0.504630 0.315181
vt 0.481424 0.404868
vt 0.565433 0.191986
vt 0.543611 0.172569
vt 0.515340 0.259476
vt 0.553939 0.084888
vt 0.538986 0.147503
vt 0.519904 0.164661
vt 0.521775 0.208833
vt 0.592593 0.584773
vt 0.622703 0.508218
vt 0.634579 0.594032
vt 0.678488 0.378704
vt 0.615685 0.379427
vt 0.658132 0.326961
vt 0.629894 0.462102
vt 0.643517 0.536639
vt 0.688609 0.497528
vt 0.601501 0.435287
vt 0.632811 0.282852
vt 0.753256 0.372756
vt 0.720557 0.336379
vt 0.784367 0.255327
vt 0.809820 0.456781
vt 0.746879 0.465740
vt 0.801474 0.388379
vt 0.737968 0.209571
vt 0.770928 0.153470
vt 0.789054 0.291440
vt 0.729530 0.286174
vt 0.710829 0.650476
vt 0.823633 0.579496
vt 0.831343 0.656121
vt 0.709084 0.437745
vt 0.702661 0.542364
vt 0.722114 0.256720
vt 0.716034 0.238674
vt 0.705020 0.199855
vt 0.741410 0.133040
vt 0.596405 0.305354
vt 0.605453 0.328863
vt 0.593924 0.394225
vt 0.609083 0.278320
vt 0.609461 0.230375
vt 0.614480 0.178220
vt 0.621131 0.325219
vt 0.629796 0.243337
vt 0.647116 0.205174
vt 0.627739 0.191187
vt 0.447340 0.707811
vt 0.419794 0.709554
vt 0.876435 0.559920
vt 0.842068 0.162751
vt 0.898074 0.669371
vt 0.996583 0.097314
vt 0.448632 0.741163
vt 0.695295 0.123504
vt 0.708779 0.136736
vt 0.661019 0.140058
vt 0.677027 0.063304
vt 0.710232 0.066637
vt 0.677547 0.649120
vt 0.685007 0.435727
vt 0.361470 0.159868
vt 0.871392 0.000000
vt 0.898074 0.006331
vt 0.880628 0.090193
vt 0.967084 0.318552
vt 0.955091 0.466631
vt 0.898074 0.604515
vt 0.420976 0.743022
vt 0.316473 0.464513
vt 0.277005 0.388167
vt 0.274271 0.325164
vt 0.026701 0.460411
vt 0.161836 0.583758
vt 0.404197 0.562629
vt 0.554666 0.572034
vt 0.512376 0.653258
vt 0.589143 0.124826
vt 0.492854 0.081849
vt 0.504754 -0.000000
vt 0.562858 0.104561
vt 0.432086 0.546593
vt 0.615931 0.047018
vt 0.582959 0.028770
vt 0.587411 0.651134
vt 0.816531 0.514478
vt 0.719325 0.585964
vt 0.625642 0.111696
vt 0.637314 0.127939
vt 0.759513 0.067756
vt 0.646335 0.057836
s 1
usemtl Material
f 9/1/1 142/2/2 2/3/3
f 142/2/2 11/4/4 12/5/5
f 10/6/6 11/4/4 9/1/1
f 47/7/7 46/8/8 126/9/9
f 126/9/9 46/8/8 127/10/10
f 48/11/11 126/9/9 37/12/12
f 3/13/13 48/11/11 37/12/12
f 29/14/14 46/8/8 45/15/15
f 28/16/16 46/8/8 29/14/14
f 37/12/12 126/9/9 118/17/17
f 118/17/17 126/9/9 26/18/18
f 26/18/18 126/9/9 27/19/19
f 1/20/20 19/21/21 33/22/22
f 49/23/23 20/24/24 31/25/25
f 31/25/25 20/24/24 21/26/26
f 4/27/27 49/23/23 32/28/28
f 38/29/29 39/30/30 7/31/31
f 38/29/29 7/31/31 41/32/32
f 40/33/33 8/34/34 50/35/35
f 40/33/33 140/36/36 8/34/34
f 8/34/34 39/30/30 38/29/29
f 79/37/37 78/38/38 130/39/39
f 131/40/40 78/38/38 77/41/41
f 133/42/42 80/43/43 69/44/44
f 81/45/45 80/43/43 133/42/42
f 132/46/46 77/41/41 59/47/47
f 50/48/48 133/42/42 76/49/49
f 69/44/44 130/39/39 131/40/40
f 137/50/50 119/51/51 139/52/52
f 137/50/50 136/53/53 119/51/51
f 135/54/54 136/53/53 137/50/50
f 103/55/55 135/54/54 212/56/56
f 139/52/52 119/51/51 221/57/57
f 3/58/58 37/59/59 140/36/36
f 43/60/60 36/61/61 35/62/62
f 15/63/63 141/64/64 13/65/65
f 141/64/64 23/66/66 142/2/2
f 13/65/65 141/64/64 142/2/2
f 24/67/67 23/66/66 141/64/64
f 142/2/2 198/68/68 97/69/69
f 142/2/2 22/70/70 198/68/68
f 144/71/71 46/8/8 47/7/7
f 4/72/72 46/8/8 143/73/73
f 45/15/15 46/8/8 4/72/72
f 16/74/74 48/11/11 3/13/13
f 2/75/75 30/76/76 19/21/21
f 6/77/77 30/76/76 2/75/75
f 34/78/78 31/25/25 21/26/26
f 49/23/23 31/25/25 32/28/28
f 13/79/79 12/80/80 149/81/81
f 148/82/82 149/81/81 145/83/83
f 147/84/84 12/80/80 11/85/85
f 35/86/86 15/87/87 42/88/88
f 51/89/89 146/90/90 10/91/91
f 146/90/90 11/85/85 10/91/91
f 42/88/88 15/87/87 55/92/92
f 54/93/93 145/83/83 53/94/94
f 19/95/95 57/96/96 2/97/97
f 57/96/96 151/98/98 179/99/99
f 1/100/100 58/101/101 19/95/95
f 59/47/47 60/102/102 152/103/103
f 161/104/104 63/105/105 81/45/45
f 156/106/106 18/107/107 158/108/108
f 143/109/109 18/107/107 156/106/106
f 160/110/110 17/111/111 47/112/112
f 155/113/113 17/111/111 160/110/110
f 157/114/114 155/113/113 160/110/110
f 143/109/109 20/115/115 4/116/116
f 182/117/117 159/118/118 64/119/119
f 159/118/118 47/112/112 48/120/120
f 162/121/121 67/122/122 68/123/123
f 164/124/124 165/125/125 161/104/104
f 180/126/126 67/122/122 165/125/125
f 66/127/127 165/125/125 164/124/124
f 163/128/128 68/123/123 179/99/99
f 41/129/129 65/130/130 56/131/131
f 56/131/131 164/124/124 161/104/104
f 128/132/132 65/130/130 41/129/129
f 167/133/133 169/134/134 168/135/135
f 172/136/136 170/137/137 171/138/138
f 166/139/139 170/137/137 172/136/136
f 1/100/100 167/133/133 58/101/101
f 71/140/140 72/141/141 169/134/134
f 21/142/142 167/133/133 1/100/100
f 69/44/44 75/143/143 76/49/49
f 62/144/144 61/145/145 176/146/146
f 81/45/45 63/105/105 80/43/43
f 63/105/105 176/146/146 173/147/147
f 175/148/148 61/145/145 174/149/149
f 41/129/129 81/45/45 38/150/150
f 174/149/149 61/145/145 60/102/102
f 80/43/43 173/147/147 79/37/37
f 54/93/93 178/151/151 177/152/152
f 53/94/94 52/153/153 178/151/154
f 180/126/126 52/153/153 51/89/89
f 128/132/132 55/92/92 65/130/130
f 66/127/127 177/152/152 180/126/126
f 42/88/88 55/92/92 128/132/132
f 181/154/155 51/89/89 10/91/91
f 182/117/117 83/155/156 184/156/157
f 182/117/117 187/157/158 83/155/156
f 185/158/159 82/159/160 64/119/119
f 186/160/161 187/157/158 182/117/117
f 183/161/162 84/162/163 71/140/140
f 3/163/164 185/158/159 16/164/165
f 64/119/119 186/160/161 182/117/117
f 40/165/166 185/158/159 3/163/164
f 190/166/167 191/167/168 188/168/169
f 74/169/170 73/170/171 191/167/168
f 75/143/143 191/167/168 190/166/167
f 189/171/172 73/170/171 84/162/163
f 84/162/163 72/141/141 71/140/140
f 84/162/163 73/170/171 72/141/141
f 40/165/166 76/49/49 185/158/159
f 185/158/159 190/166/167 82/159/160
f 50/48/48 76/49/49 40/165/166
f 86/172/173 90/173/174 195/174/175
f 193/175/176 192/176/177 86/172/173
f 107/177/178 193/175/176 223/178/179
f 87/179/180 30/180/181 6/181/182
f 88/182/183 89/183/184 193/175/176
f 86/172/173 195/174/175 194/184/185
f 195/174/175 90/173/174 91/185/186
f 24/186/187 199/187/188 23/188/189
f 23/188/189 200/189/190 22/190/191
f 23/188/189 196/191/192 200/189/190
f 198/192/193 197/193/194 97/194/195
f 197/193/194 207/195/196 97/194/195
f 198/192/193 96/196/197 207/195/196
f 44/197/198 94/198/199 43/199/200
f 91/185/186 202/200/201 201/201/202
f 100/202/203 202/200/201 99/203/204
f 92/204/205 201/201/202 101/205/206
f 99/203/204 89/183/184 88/182/183
f 101/205/206 201/201/202 206/206/207
f 203/207/208 204/208/209 95/209/210
f 96/196/197 100/202/203 207/195/196
f 96/196/197 206/206/207 100/202/203
f 205/210/211 206/206/207 96/196/197
f 44/197/198 203/207/208 94/198/199
f 95/209/210 205/210/211 200/189/190
f 207/195/196 99/203/204 97/194/195
f 207/195/196 100/202/203 99/203/204
f 211/211/212 210/212/213 105/213/214
f 104/214/215 109/215/216 213/216/217
f 210/212/213 208/217/218 104/214/215
f 105/213/214 209/218/219 113/219/220
f 107/177/178 108/220/221 210/212/213
f 104/214/215 213/216/217 212/56/56
f 213/216/217 109/215/216 110/221/222
f 215/222/223 115/223/224 26/224/225
f 28/225/226 214/226/227 127/227/228
f 26/224/225 117/228/229 118/229/230
f 127/227/228 215/222/223 27/230/231
f 26/224/225 116/231/232 117/228/229
f 31/232/233 45/233/234 32/234/235
f 113/219/220 114/235/236 217/236/237
f 116/231/232 115/223/224 218/237/238
f 119/51/51 115/223/224 221/57/57
f 219/238/239 218/237/238 119/51/51
f 120/239/240 219/238/239 136/53/53
f 118/229/230 117/228/229 220/240/241
f 221/57/57 114/235/236 113/219/220
f 221/57/57 115/223/224 114/235/236
f 222/241/242 124/242/243 125/243/244
f 222/241/242 226/244/245 124/242/243
f 225/245/246 226/244/245 222/241/242
f 223/178/179 125/243/244 107/177/178
f 85/246/247 225/245/246 194/184/185
f 124/242/243 228/247/248 125/243/244
f 110/221/222 228/247/248 227/248/249
f 111/249/250 227/248/249 123/250/251
f 125/243/244 108/220/221 107/177/178
f 123/250/251 227/248/249 226/244/245
f 42/251/252 43/60/60 35/62/62
f 43/60/60 42/251/252 44/252/253
f 13/65/65 142/2/2 12/5/5
f 98/253/254 2/3/3 142/2/2
f 9/1/1 11/4/4 142/2/2
f 15/63/63 13/65/65 14/254/255
f 6/255/256 2/3/3 98/253/254
f 48/11/11 47/7/7 126/9/9
f 28/16/16 127/10/10 46/8/8
f 27/19/19 126/9/9 127/10/10
f 5/256/257 33/22/22 19/21/21
f 4/27/27 20/24/24 49/23/23
f 33/22/22 21/26/26 1/20/20
f 42/251/252 128/257/258 44/252/253
f 50/35/35 8/34/34 38/29/29
f 80/43/43 79/37/37 130/39/39
f 131/40/40 130/39/39 78/38/38
f 69/44/44 80/43/43 130/39/39
f 103/55/55 134/258/259 121/259/260 120/239/240
f 76/49/49 133/42/42 69/44/44
f 135/54/54 103/55/55 120/239/240 136/53/53
f 134/258/259 112/260/261 8/261/262 140/262/263
f 137/50/50 104/214/215 212/56/56 135/54/54
f 112/260/261 134/258/259 103/55/55
f 217/236/237 34/263/264 105/213/214 113/219/220
f 140/262/263 121/259/260 134/258/259
f 139/52/52 138/264/265 104/214/215 137/50/50
f 221/57/57 113/219/220 138/264/265 139/52/52
f 149/81/81 148/82/82 14/265/266 13/79/79
f 35/266/267 36/267/268 15/63/63
f 36/267/268 25/268/269 141/64/64
f 25/268/269 24/67/67 141/64/64
f 36/267/268 141/64/64 15/63/63
f 98/253/254 142/2/2 97/69/69
f 142/2/2 23/66/66 22/70/70
f 144/71/71 143/73/73 46/8/8
f 17/269/270 144/71/71 47/7/7
f 18/270/271 143/73/73 144/71/71
f 32/271/272 45/15/15 4/72/72
f 19/21/21 30/76/76 5/256/257
f 21/26/26 33/22/22 34/78/78
f 129/272/273 44/252/253 128/257/258
f 128/257/258 41/32/32 129/272/273
f 7/31/31 129/272/273 41/32/32
f 15/87/87 14/265/266 148/82/82
f 148/82/82 54/93/93 55/92/92 15/87/87
f 149/81/81 12/80/80 145/83/83
f 147/84/84 145/83/83 12/80/80
f 11/85/85 51/89/89 52/153/153 147/84/84
f 54/93/93 148/82/82 145/83/83
f 51/89/89 11/85/85 146/90/90
f 147/84/84 52/153/153 53/94/94 145/83/83
f 152/103/103 151/98/98 57/96/96 58/101/101
f 150/273/274 151/98/98 60/102/102 153/274/275
f 152/103/103 60/102/102 151/98/98
f 150/273/274 163/128/128 179/99/99 151/98/98
f 19/95/95 58/101/101 57/96/96
f 153/274/275 68/123/123 163/128/128 150/273/274
f 81/45/45 41/129/129 56/131/131 161/104/104
f 58/101/101 59/47/47 152/103/103
f 60/102/102 61/145/145 153/274/275
f 62/144/144 161/104/104 162/121/121 154/275/276
f 154/275/276 162/121/121 68/123/123 153/274/275
f 61/145/145 62/144/144 154/275/276 153/274/275
f 161/104/104 62/144/144 63/105/105
f 155/113/113 158/108/108 144/276/277 17/111/111
f 18/107/107 144/276/277 158/108/108
f 156/106/106 70/277/278 21/142/142 20/115/115
f 157/114/114 158/108/108 155/113/113
f 158/108/108 157/114/114 70/277/278 156/106/106
f 160/110/110 184/156/157 183/161/162 157/114/114
f 48/120/120 16/164/165 64/119/119 159/118/118
f 20/115/115 143/109/109 156/106/106
f 47/112/112 182/117/117 184/156/157 160/110/110
f 182/117/117 47/112/112 159/118/118
f 9/278/279 2/97/97 57/96/96 179/99/99
f 162/121/121 161/104/104 67/122/122
f 56/131/131 65/130/130 164/124/124
f 66/127/127 180/126/126 165/125/125
f 65/130/130 66/127/127 164/124/124
f 165/125/125 67/122/122 161/104/104
f 166/139/139 168/135/135 72/141/141 170/137/137
f 169/134/134 72/141/141 168/135/135
f 168/135/135 59/47/47 58/101/101 167/133/133
f 166/139/139 132/46/46 59/47/47 168/135/135
f 172/136/136 77/41/41 132/46/46 166/139/139
f 169/134/134 167/133/133 70/277/278 71/140/140
f 21/142/142 70/277/278 167/133/133
f 74/169/170 69/44/44 131/40/40 171/138/138
f 72/141/141 73/170/171 170/137/137
f 69/44/44 74/169/170 75/143/143
f 171/138/138 131/40/40 77/41/41 172/136/136
f 73/170/171 74/169/170 171/138/138 170/137/137
f 60/102/102 59/47/47 77/41/41 174/149/149
f 63/105/105 62/144/144 176/146/146
f 176/146/146 61/145/145 173/147/147
f 175/148/148 173/147/147 61/145/145
f 80/43/43 63/105/105 173/147/147
f 174/149/149 77/41/41 78/38/38 175/148/148
f 175/148/148 78/38/38 79/37/37 173/147/147
f 54/93/93 66/127/127 65/130/130 55/92/92
f 181/154/155 179/99/99 68/123/123 51/89/89
f 66/127/127 54/93/93 177/152/152
f 54/93/93 53/94/94 178/151/154
f 178/151/154 52/153/153 177/152/152
f 180/126/126 177/152/152 52/153/153
f 51/89/89 68/123/123 67/122/122 180/126/126
f 10/91/91 9/278/279 179/99/99 181/154/155
f 84/162/163 183/161/162 184/156/157 83/155/156
f 71/140/140 70/277/278 157/114/114 183/161/162
f 64/119/119 82/159/160 186/160/161
f 82/159/160 187/157/158 186/160/161
f 188/168/169 187/157/158 82/159/160 190/166/167
f 16/164/165 185/158/159 64/119/119
f 189/171/172 188/168/169 73/170/171
f 185/158/159 76/49/49 190/166/167
f 75/143/143 74/169/170 191/167/168
f 191/167/168 73/170/171 188/168/169
f 76/49/49 75/143/143 190/166/167
f 83/155/156 189/171/172 84/162/163
f 189/171/172 83/155/156 187/157/158 188/168/169
f 89/183/184 90/173/174 86/172/173 192/176/177
f 193/175/176 89/183/184 192/176/177
f 107/177/178 106/279/280 87/179/180 193/175/176
f 5/280/281 30/180/181 87/179/180 106/279/280
f 223/178/179 193/175/176 86/172/173
f 87/179/180 88/182/183 193/175/176
f 92/204/205 93/281/282 85/246/247 194/184/185
f 91/185/186 92/204/205 194/184/185 195/174/175
f 96/196/197 198/192/193 22/190/191 200/189/190
f 196/191/192 199/187/188 95/209/210 200/189/190
f 94/198/199 95/209/210 199/187/188
f 24/186/187 25/282/283 94/198/199 199/187/188
f 23/188/189 199/187/188 196/191/192
f 90/173/174 89/183/184 99/203/204 202/200/201
f 197/193/194 198/192/193 207/195/196
f 36/283/284 43/199/200 25/282/283
f 43/199/200 94/198/199 25/282/283
f 92/204/205 91/185/186 201/201/202
f 101/205/206 102/284/285 93/281/282 92/204/205
f 100/202/203 201/201/202 202/200/201
f 87/179/180 6/181/182 98/285/286 88/182/183
f 91/185/186 90/173/174 202/200/201
f 7/286/287 93/281/282 102/284/285
f 204/208/209 203/207/208 102/284/285 101/205/206
f 129/287/288 7/286/287 102/284/285
f 206/206/207 201/201/202 100/202/203
f 94/198/199 203/207/208 95/209/210
f 95/209/210 204/208/209 205/210/211
f 205/210/211 204/208/209 101/205/206 206/206/207
f 88/182/183 98/285/286 97/194/195 99/203/204
f 44/197/198 129/287/288 203/207/208
f 200/189/190 205/210/211 96/196/197
f 129/287/288 102/284/285 203/207/208
f 108/220/221 109/215/216 104/214/215 208/217/218
f 210/212/213 108/220/221 208/217/218
f 210/212/213 138/264/265 113/219/220 209/218/219
f 105/213/214 210/212/213 209/218/219
f 34/263/264 33/288/289 105/213/214
f 211/211/212 33/288/289 5/280/281 106/279/280
f 138/264/265 210/212/213 104/214/215
f 210/212/213 211/211/212 106/279/280 107/177/178
f 111/249/250 112/260/261 103/55/55 212/56/56
f 211/211/212 105/213/214 33/288/289
f 110/221/222 111/249/250 212/56/56 213/216/217
f 114/235/236 215/222/223 127/227/228 214/226/227
f 29/289/290 45/233/234 216/290/291 217/236/237
f 217/236/237 114/235/236 214/226/227
f 28/225/226 29/289/290 217/236/237 214/226/227
f 216/290/291 31/232/233 34/263/264 217/236/237
f 27/230/231 215/222/223 26/224/225
f 26/224/225 115/223/224 116/231/232
f 120/239/240 121/259/260 220/240/241 117/228/229
f 114/235/236 115/223/224 215/222/223
f 31/232/233 216/290/291 45/233/234
f 117/228/229 116/231/232 218/237/238
f 119/51/51 218/237/238 115/223/224
f 219/238/239 120/239/240 117/228/229 218/237/238
f 85/246/247 224/291/292 122/292/293 123/250/251
f 140/262/263 37/293/294 121/259/260
f 136/53/53 219/238/239 119/51/51
f 37/293/294 118/229/230 220/240/241
f 133/42/42 50/48/48 38/150/150 81/45/45
f 37/293/294 220/240/241 121/259/260
f 225/245/246 85/246/247 123/250/251 226/244/245
f 125/243/244 223/178/179 86/172/173 222/241/242
f 224/291/292 93/281/282 7/286/287 39/294/295
f 222/241/242 86/172/173 194/184/185 225/245/246
f 93/281/282 224/291/292 85/246/247
f 109/215/216 108/220/221 125/243/244 228/247/248
f 39/294/295 122/292/293 224/291/292
f 123/250/251 122/292/293 112/260/261 111/249/250
f 124/242/243 227/248/249 228/247/248
f 111/249/250 110/221/222 227/248/249
f 39/294/295 8/261/262 122/292/293
f 226/244/245 227/248/249 124/242/243
f 110/221/222 109/215/216 228/247/248
f 8/261/262 112/260/261 122/292/293
f 40/33/33 3/58/58 140/36/36
