# Blender 5.1.1
# www.blender.org
mtllib glass1.mtl
o Cube.001
v 0.164129 -0.327769 0.700657
v -1.890017 1.146858 1.219996
v -0.063522 -0.115173 -0.253125
v -2.456536 1.630131 -0.211867
v 0.211269 -0.263209 0.703796
v -1.842877 1.211418 1.223135
v -0.016382 -0.050613 -0.249986
v -2.409396 1.694691 -0.208728
v -1.956087 1.212309 0.866055
v -2.041977 1.291023 0.537005
v -2.089103 1.332234 0.397100
v -2.244595 1.460673 0.090591
v -1.994837 1.355582 0.540143
v -1.908947 1.276869 0.869193
v -2.197455 1.525233 0.093730
v -2.041963 1.396794 0.400239
vn 0.1399 -0.1498 0.9788
vn 0.0119 0.0399 -0.9991
vn 0.7754 -0.5512 -0.3080
vn -0.7696 0.5458 0.3314
vn -0.6879 0.4756 0.5483
vn -0.7875 0.5628 0.2511
vn -0.5892 -0.8070 -0.0392
vn -0.7472 0.5258 0.4066
vn -0.6170 0.4181 0.6666
vn 0.5892 0.8070 0.0392
vt 0.968458 0.696333
vt 0.936917 0.000000
vt 0.968458 0.000000
vt 0.905375 0.000000
vt 0.936917 0.764761
vt 0.905375 0.764761
vt 0.936917 0.696333
vt 0.968458 0.989378
vt 0.936917 0.989378
vt 0.968458 0.346858
vt 1.000000 0.246327
vt 1.000000 0.346858
vt 0.968458 0.202735
vt 1.000000 0.103050
vt 1.000000 0.202735
vt 1.000000 0.452887
vt 0.250970 0.045119
vt 0.290662 0.747400
vt 0.207336 0.043911
vt 1.000000 0.000000
vt 0.614713 0.747400
vt 0.654405 0.045119
vt 0.698039 0.043911
vt 0.936917 0.696333
vt 0.936917 0.000000
vt 0.968458 0.696333
vt 0.968458 0.246327
vt 0.968458 0.103050
vt 0.968458 0.452887
vt -0.000000 0.710107
vt 0.000000 0.013774
vt 0.106525 0.033327
vt 0.452688 -0.000000
vt 0.350360 0.031549
vt 0.798850 0.033327
vt 0.905375 0.013774
vt 0.905375 0.710107
vt 0.452688 0.000000
vt 0.555015 0.031549
s 0
usemtl Material.001
f 1/1/1 6/2/1 2/3/1
f 4/4/2 7/5/2 3/6/2
f 3/7/3 5/8/3 1/9/3
f 14/10/4 10/11/4 9/12/4
f 16/13/5 12/14/5 11/15/5
f 2/16/6 14/10/6 9/12/6
f 11/17/7 3/18/7 10/19/7
f 10/11/8 16/13/8 11/15/8
f 12/14/9 8/3/9 4/20/9
f 7/21/10 16/22/10 13/23/10
f 1/1/1 5/24/1 6/2/1
f 4/4/2 8/25/2 7/5/2
f 3/7/3 7/26/3 5/8/3
f 14/10/4 13/27/4 10/11/4
f 16/13/5 15/28/5 12/14/5
f 2/16/6 6/29/6 14/10/6
f 1/30/7 2/31/7 9/32/7
f 1/30/7 9/32/7 10/19/7
f 4/33/7 3/18/7 12/34/7
f 3/18/7 1/30/7 10/19/7
f 12/34/7 3/18/7 11/17/7
f 10/11/8 13/27/8 16/13/8
f 12/14/9 15/28/9 8/3/9
f 14/35/10 6/36/10 5/37/10
f 5/37/10 7/21/10 13/23/10
f 7/21/10 8/38/10 15/39/10
f 7/21/10 15/39/10 16/22/10
f 13/23/10 14/35/10 5/37/10
