# Blender 5.1.1
# www.blender.org
mtllib glass2.mtl
o Cube.003
v -0.784814 0.044249 0.187119
v -0.783999 -0.014531 -0.301658
v -0.528372 0.291786 0.453528
v 0.148822 0.371222 0.412896
v 0.657219 0.050355 -0.124052
v 0.616309 0.106056 -0.239719
v 0.402630 0.167006 0.349180
v -0.004640 -0.038647 0.878561
v 0.322418 -0.121563 0.845501
v -0.126266 -0.178785 0.774887
v 0.047047 -0.354931 0.678019
v 0.379663 -0.545160 0.275829
v 0.466782 -0.565546 0.142193
v 0.693497 -0.299196 -0.047157
v 0.500186 -0.061286 0.667983
v 0.371737 0.036010 0.723900
v 0.295565 -0.226745 0.780885
v 0.453065 -0.431029 0.505857
v 0.660171 -0.357664 0.417385
v 0.498039 -0.196581 -0.696934
v 0.510875 0.020277 -0.571607
v -0.063351 0.247558 -0.871349
v -0.162397 0.362957 -0.823022
v -0.687874 0.355330 -0.283605
v -0.699305 0.298334 -0.319411
v -0.767856 0.129967 -0.417028
v -0.568294 -0.215913 -0.797867
v -0.153728 -0.471326 -0.648209
v -0.165625 -0.532992 -0.439568
v 0.058542 -0.265637 -0.797965
v 0.154771 0.060176 -0.902271
v 0.036965 -0.035806 -0.956881
v -0.243235 -0.470491 0.078047
v -0.522180 -0.194866 0.302821
v -0.707375 0.020628 0.371296
v -0.655765 -0.179282 0.165264
v -0.773479 -0.145818 -0.078221
v -0.848430 0.028734 0.058612
v -0.648593 0.270647 0.177044
v -0.403023 0.441788 0.278620
v -0.099967 0.470680 0.289034
v 0.031038 0.509283 0.084480
v -0.198725 0.532944 -0.140439
v -0.004052 0.510121 -0.321718
v 0.336867 0.389122 0.116923
v 0.355197 0.269027 -0.370262
v 0.528420 0.191257 0.134351
v 0.562561 0.066121 0.314952
v 0.288813 0.301506 0.385352
v -0.053924 0.267150 0.705615
v -0.053848 0.127401 0.864606
v 0.197800 -0.012026 0.881511
v 0.157552 -0.245239 0.806679
v 0.063917 -0.517393 0.314904
v 0.220702 -0.546427 0.162220
v 0.606364 -0.483581 0.001629
v 0.706642 -0.289047 -0.222881
v 0.727446 -0.288975 0.264145
v 0.731386 -0.152581 0.117989
v 0.597554 -0.059507 0.443462
v 0.578957 -0.122288 0.562713
v 0.439587 -0.160156 0.732248
v 0.369303 -0.244533 0.636002
v 0.520868 -0.288662 0.531844
v 0.240736 0.055654 0.839763
v 0.683120 -0.109583 -0.348444
v 0.640187 -0.212944 -0.515726
v -0.364045 0.483528 -0.590257
v -0.598703 0.127381 -0.698905
v -0.373157 -0.153778 -0.872478
v -0.667963 -0.103098 -0.752580
v -0.689195 -0.189405 -0.516700
v -0.716347 -0.115090 -0.660617
v -0.498288 -0.378107 -0.593125
v -0.069877 -0.324511 -0.843511
v 0.305360 -0.494889 -0.445064
v 0.318570 -0.085790 -0.846175
v -0.293610 0.111279 -0.922521
v -0.249472 0.225894 -0.915556
v -0.392352 0.275073 -0.833333
v 0.440983 0.006938 -0.682304
v 0.116962 0.211268 -0.825637
v 0.377949 -0.263742 -0.768956
v 0.063140 -0.558599 -0.376368
v 0.194496 -0.625942 -0.172345
v -0.110390 -0.560958 -0.129025
v -0.567916 -0.280370 -0.760425
v -0.125020 -0.091449 -0.868015
v -0.565763 0.308154 -0.644699
v -0.477683 0.198913 -0.782511
v -0.407254 0.069346 -0.796607
v 0.168786 0.362465 -0.512482
v 0.528204 -0.381647 -0.533941
v 0.321200 -0.361046 0.573956
v -0.223561 -0.429669 0.272583
v -0.480579 -0.017110 0.616098
v -0.569962 0.111382 0.563766
v -0.243992 0.222247 0.764324
v -0.199242 0.056668 0.831105
v -0.269556 0.383437 0.555173
v 0.264556 0.156622 0.610989
v 0.687429 -0.064313 0.015894
v -0.552993 0.441180 -0.135145
v -0.745964 0.175369 -0.056815
v -0.650866 -0.224633 -0.262870
v -0.419713 -0.205840 0.527150
v 0.068970 0.291371 -0.088755
v -1.169619 2.376672 0.696696
v 0.115053 0.270602 -0.429535
v -0.879274 1.831825 0.819756
v 0.137080 0.046837 0.580173
v 0.137847 0.093527 0.316576
v 0.137654 0.329544 -0.081794
v -1.100936 2.414845 0.703657
v 0.183736 0.308776 -0.422574
v -0.810590 1.869999 0.826717
v 0.205763 0.085010 0.587134
v 0.206530 0.131701 0.323537
v 0.171674 -0.017902 -0.259928
v 0.386245 -0.338291 -0.620089
v 0.079226 0.050483 0.277198
v 0.240357 0.020271 -0.252967
v -1.813058 3.583303 -0.425364
v -1.486558 2.922911 -0.025411
v 0.147910 0.088656 0.284159
v 0.027835 0.248305 0.593411
v -1.417874 2.961084 -0.018450
v -1.744374 3.621476 -0.418403
v -0.040848 0.210132 0.586449
v 0.454928 -0.300118 -0.613127
vn -0.3258 -0.9440 0.0527
vn -0.4654 -0.8656 0.1849
vn -0.5781 -0.8044 -0.1367
vn -0.6627 -0.6890 0.2934
vn -0.5916 -0.7340 0.3336
vn -0.5783 -0.6576 0.4829
vn -0.4523 -0.8471 0.2788
vn -0.8509 -0.2449 0.4646
vn -0.9724 -0.1351 0.1905
vn -0.8673 0.4977 0.0087
vn -0.9710 -0.2238 -0.0846
vn -0.9179 -0.1210 0.3779
vn -0.6438 0.6282 0.4369
vn -0.7486 0.6203 0.2339
vn -0.4743 0.8769 0.0782
vn -0.8630 0.5024 -0.0541
vn 0.0608 0.9572 0.2831
vn -0.1550 0.8622 0.4823
vn 0.3549 0.8333 0.4238
vn 0.2515 0.9646 0.0791
vn -0.0699 0.9974 0.0188
vn 0.3315 0.9311 -0.1520
vn 0.5822 0.7713 -0.2572
vn 0.5647 0.8191 0.1009
vn 0.7896 0.5832 -0.1907
vn 0.7739 0.6013 0.1990
vn 0.6610 0.6266 0.4129
vn 0.7482 0.6018 0.2793
vn 0.6177 0.6604 0.4270
vn 0.4940 0.7525 0.4356
vn 0.2053 0.8039 0.5582
vn -0.7997 -0.6004 -0.0036
vn -0.3410 0.5147 0.7866
vn -0.0330 0.3888 0.9207
vn -0.4415 -0.0714 0.8944
vn -0.1521 -0.1993 0.9681
vn 0.4974 -0.0869 0.8632
vn 0.1761 0.0859 0.9806
vn 0.0229 -0.5854 0.8105
vn -0.4005 -0.5192 0.7550
vn -0.1686 -0.7949 0.5829
vn 0.0775 -0.9461 0.3146
vn -0.1825 -0.9357 0.3020
vn -0.0299 -0.9820 0.1863
vn 0.0383 -0.9958 -0.0832
vn 0.3065 -0.9438 0.1234
vn 0.6867 -0.7237 -0.0679
vn 0.5621 -0.6830 -0.4665
vn 0.9720 -0.1889 -0.1397
vn 0.8843 0.0076 -0.4669
vn 0.9353 -0.3539 0.0045
vn 0.9648 0.2544 0.0664
vn 0.9318 0.2490 -0.2642
vn 0.9770 -0.0466 0.2082
vn 0.9356 0.3499 0.0476
vn 0.8504 0.4273 0.3068
vn 0.7655 0.2741 0.5822
vn 0.8552 0.1432 0.4982
vn 0.7814 -0.3551 0.5132
vn 0.6065 0.5588 0.5657
vn 0.4784 0.5310 0.6994
vn 0.6634 -0.1889 0.7240
vn 0.3616 -0.6639 0.6546
vn 0.4608 -0.6739 0.5774
vn 0.2315 -0.7408 0.6306
vn 0.4947 -0.4133 0.7645
vn 0.2427 -0.6575 0.7133
vn 0.8984 0.4390 0.0080
vn 0.7306 0.5079 -0.4565
vn 0.5157 0.7838 -0.3461
vn 0.1723 0.7331 -0.6579
vn 0.2866 0.5275 -0.7998
vn -0.2170 0.9122 -0.3475
vn -0.4873 0.4093 -0.7714
vn -0.7157 0.4891 -0.4984
vn -0.9396 0.2481 -0.2357
vn -0.9085 0.3813 -0.1709
vn -0.6536 0.2906 -0.6988
vn -0.6309 0.0469 -0.7744
vn -0.4565 -0.0533 -0.8881
vn -0.5863 -0.6235 -0.5172
vn -0.7245 -0.0393 -0.6882
vn -0.4328 -0.2737 -0.8590
vn -0.1958 -0.0529 -0.9792
vn -0.9115 -0.2420 -0.3326
vn -0.7952 -0.6051 -0.0396
vn -0.7015 -0.7124 -0.0198
vn -0.0700 -0.8728 -0.4830
vn -0.2498 -0.9575 -0.1442
vn 0.1779 -0.4526 -0.8738
vn 0.1155 -0.6106 -0.7835
vn 0.2213 -0.8719 -0.4368
vn 0.3657 -0.5085 -0.7796
vn 0.5391 0.1003 -0.8362
vn 0.7358 -0.0379 -0.6762
vn 0.6896 0.4502 -0.5673
vn -0.1283 0.3495 -0.9281
vn 0.0527 -0.1210 -0.9913
vn -0.4419 -0.1833 -0.8781
vn 0.4031 0.3176 -0.8583
vn -0.1441 -0.3118 -0.9391
vn 0.4452 0.6514 -0.6144
vn -0.6198 -0.3211 0.7161
vn -0.7472 0.0908 0.6584
vn -0.3553 0.9068 0.2268
vn -0.0033 -0.9611 -0.2763
vn -0.8707 -0.4839 -0.0882
vn 0.8707 0.4839 0.0882
vn -0.1324 0.4034 -0.9054
vn -0.0201 -0.1442 0.9893
vn 0.4733 -0.8730 0.1172
vn -0.1710 0.1295 0.9767
vn 0.4919 -0.8576 -0.1505
vn 0.4681 -0.7601 -0.4506
vn 0.2767 -0.6302 0.7255
vn 0.4622 -0.8662 0.1898
vn 0.3682 -0.7601 0.5354
vn -0.1708 0.1293 0.9768
vn -0.3004 0.3810 0.8744
vn 0.0560 0.0808 -0.9952
vt 0.459345 0.273236
vt 0.494779 0.255516
vt 0.467571 0.371119
vt 0.557762 0.288148
vt 0.554610 0.248566
vt 0.559019 0.199331
vt 0.508649 0.221452
vt 0.593043 0.256307
vt 0.577611 0.331963
vt 0.584612 0.373024
vt 0.529234 0.377986
vt 0.891828 0.090890
vt 0.890706 0.193352
vt 0.859166 0.137758
vt 0.787336 0.142312
vt 0.772725 0.096678
vt 0.819257 0.260348
vt 0.876566 0.256087
vt 0.819952 0.308821
vt 0.779903 0.264347
vt 0.762193 0.210263
vt 0.725522 0.228424
vt 0.703086 0.276143
vt 0.767327 0.308101
vt 0.710016 0.318030
vt 0.759337 0.335772
vt 0.796212 0.341395
vt 0.779934 0.359436
vt 0.806547 0.325809
vt 0.844435 0.348634
vt 0.885677 0.306882
vt 0.587720 0.300221
vt 0.546149 0.337674
vt 0.919315 0.277766
vt 0.920628 0.324449
vt 0.948781 0.289670
vt 0.942207 0.340179
vt 0.895962 0.396546
vt 0.902752 0.369248
vt 0.535293 0.074605
vt 0.501377 0.081708
vt 0.481142 0.039783
vt 0.566086 0.102255
vt 0.539497 0.120136
vt 0.505228 0.122539
vt 0.422023 0.149557
vt 0.472281 0.182847
vt 0.435233 0.188259
vt 0.411682 0.247202
vt 0.395219 0.160340
vt 0.692073 0.411517
vt 0.616242 0.327406
vt 0.687450 0.354399
vt 0.656925 0.315350
vt 0.709244 0.374064
vt 0.742988 0.370539
vt 0.686221 0.326452
vt 0.757166 0.395160
vt 0.732747 0.353854
vt 0.794957 0.381851
vt 0.836120 0.394194
vt 0.814548 0.396727
vt 0.780113 0.420757
vt 0.855166 0.380037
vt 0.885443 0.369589
vt 0.859878 0.409586
vt 0.479260 0.063196
vt 0.450255 0.040444
vt 0.451012 0.072453
vt 0.454921 0.099312
vt 0.417244 0.068972
vt 0.428930 0.098064
vt 0.382984 0.074001
vt 0.350378 0.160874
vt 0.720716 0.332457
vt 0.664785 0.287113
vt 0.690322 0.240203
vt 0.654090 0.165227
vt 0.638173 0.175495
vt 0.699245 0.148124
vt 0.654709 0.112585
vt 0.698124 0.087693
vt 0.762421 0.039783
vt 0.769859 0.083883
vt 0.688771 0.051181
vt 0.664608 0.085370
vt 0.645453 0.074479
vt 0.462081 0.392903
vt 0.468258 0.405690
vt 0.459349 0.399421
vt 0.432724 0.407775
vt 0.479935 0.400998
vt 0.491172 0.383118
vt 0.514436 0.350080
vt 0.523477 0.408514
vt 0.423543 0.353266
vt 0.441383 0.324127
vt 0.395241 0.382361
vt 0.365708 0.370628
vt 0.361897 0.280539
vt 0.304679 0.333061
vt 0.304679 0.270197
vt 0.597376 0.263479
vt 0.616507 0.239453
vt 0.628683 0.283739
vt 0.648787 0.269826
vt 0.634648 0.135131
vt 0.593043 0.179941
vt 0.622098 0.110870
vt 0.620153 0.208611
vt 0.339265 0.411084
vt 0.382043 0.409325
vt 0.394503 0.446538
vt 0.641315 0.209280
vt 0.583796 0.183834
vt 0.927288 0.185366
vt 0.843441 0.206838
vt 0.830431 0.085276
vt 0.873995 0.060975
vt 0.816203 0.431631
vt 0.468985 0.440975
vt 0.428347 0.436956
vt 0.412574 0.293247
vt 0.918536 0.129135
vt 0.948781 0.197342
vt 0.467643 0.689336
vt 0.527199 0.647663
vt 0.479822 0.923889
vt 0.249893 0.924111
vt 0.262081 0.689848
vt 0.323400 0.906046
vt 0.186824 0.663417
vt 0.202482 0.957574
vt 0.186824 0.957147
vt 0.186824 0.955920
vt 0.171346 0.747169
vt 0.186824 0.745515
vt 0.027472 0.421206
vt 0.060719 0.561194
vt 0.024210 0.557470
vt 0.103115 0.424623
vt 0.139666 0.578101
vt 0.103115 0.581518
vt 0.027472 0.723419
vt 0.063472 0.833636
vt 0.026963 0.829912
vt 0.063981 0.727142
vt 0.527199 0.957574
vt 0.406368 0.905515
vt 0.364899 0.885576
vt 0.202482 0.957574
vt 0.202482 0.647983
vt 0.364899 0.886292
vt 0.202482 0.663844
vt 0.171346 0.957574
vt 0.063981 0.424929
vt 0.139666 0.421206
vt 0.761269 0.472806
vt 0.761269 0.957574
vt 0.702378 0.919457
vt 0.139666 0.421206
vt 0.175961 0.566209
vt 0.139666 0.562555
vt 0.611073 0.913310
vt 0.687240 0.556310
vt 0.063981 0.421206
vt 0.103115 0.637662
vt 0.066484 0.635439
vt 0.100613 0.423429
vt 0.100613 0.759075
vt 0.835175 0.555989
vt 0.962676 0.895413
vt 0.911215 0.913712
vt 0.820062 0.919586
vt 0.543898 0.956064
vt 0.528306 0.957574
vt 0.527198 0.624339
vt 0.542790 0.622829
vt 0.528306 0.512616
vt 0.761269 0.472142
vt 0.559526 0.894877
vt 0.063981 0.756852
vt 0.543898 0.488920
vt 0.559525 0.489977
vt 0.559525 0.957574
vt 0.761269 0.957574
vt 0.543898 0.511106
vt 0.175961 0.424860
vt 0.543898 0.956517
s 0
usemtl Material.005
f 110/126/107 108/127/107 107/128/107
f 113/129/108 116/130/108 118/131/108
f 108/132/109 115/133/109 109/134/109
f 111/135/110 116/136/110 110/137/110
f 109/138/111 113/139/111 107/140/111
f 110/141/112 114/142/112 108/143/112
f 112/144/113 117/145/113 111/146/113
f 107/140/114 118/147/114 112/144/114
f 108/127/107 109/148/107 107/128/107
f 107/128/107 112/149/107 110/126/107
f 112/149/107 111/150/107 110/126/107
f 113/129/108 115/151/108 114/152/108
f 114/152/108 116/130/108 113/129/108
f 116/130/108 117/153/108 118/131/108
f 108/132/109 114/154/109 115/133/109
f 111/135/110 117/155/110 116/136/110
f 109/138/111 115/156/111 113/139/111
f 110/141/112 116/157/112 114/142/112
f 112/144/113 118/147/113 117/145/113
f 107/140/114 113/139/114 118/147/114
usemtl Material.003
f 123/158/107 120/159/107 119/160/107
f 120/161/115 122/162/115 119/163/115
f 119/160/107 121/164/107 124/165/107
f 119/166/116 125/167/116 121/168/116
f 119/166/116 122/169/116 125/167/116
f 124/165/107 123/158/107 119/160/107
f 121/168/117 125/167/117 126/170/117
f 127/171/108 126/172/108 125/173/108
f 122/174/108 127/171/108 125/173/108
f 129/175/118 126/176/118 127/177/118
f 124/178/119 127/177/119 128/179/119
f 128/180/108 127/171/108 122/174/108
f 129/175/118 127/177/118 124/178/118
f 121/164/107 129/181/107 124/165/107
f 121/168/117 126/170/117 129/182/117
f 123/183/120 128/184/120 130/185/120
f 122/174/108 130/186/108 128/180/108
f 124/178/119 128/179/119 123/187/119
f 120/161/115 130/188/115 122/162/115
f 123/183/120 130/185/120 120/189/120
s 1
usemtl 
f 86/1/1 33/2/2 74/3/3
f 36/4/4 33/2/2 34/5/5
f 106/6/6 33/2/2 95/7/7
f 35/8/8 34/5/5 106/6/6
f 34/5/5 35/8/8 36/4/4
f 38/9/9 104/10/10 2/11/11
f 1/12/12 3/13/13 39/14/14
f 103/15/15 24/16/16 39/14/14
f 41/17/17 100/18/18 4/19/19
f 42/20/20 43/21/21 41/17/17
f 41/17/17 4/19/19 42/20/20
f 43/21/21 42/20/20 44/22/22
f 46/23/23 44/22/22 42/20/20
f 42/20/20 45/24/24 46/23/23
f 6/25/25 46/23/23 45/24/24
f 47/26/26 6/25/25 45/24/24
f 47/26/26 7/27/27 48/28/28
f 45/24/24 49/29/29 47/26/26
f 4/19/19 101/30/30 49/29/29
f 101/30/30 4/19/19 50/31/31
f 36/4/4 1/32/12 38/9/9 37/33/32
f 98/34/33 51/35/34 50/31/31
f 100/18/18 98/34/33 50/31/31
f 100/18/18 50/31/31 4/19/19
f 51/35/34 99/36/35 8/37/36
f 9/38/37 52/39/38 8/37/36
f 8/40/36 53/41/39 9/42/37
f 99/43/35 10/44/40 8/40/36
f 10/44/40 11/45/41 53/41/39
f 12/46/42 11/45/41 54/47/43
f 12/46/42 54/47/43 55/48/44
f 55/48/44 85/49/45 13/50/46
f 56/51/47 93/52/48 57/53/49
f 93/52/48 67/54/50 57/53/49
f 14/55/51 57/53/49 59/56/52
f 66/57/53 57/53/49 67/54/50
f 58/58/54 56/51/47 14/55/51
f 59/56/52 102/59/55 48/28/28
f 48/28/28 60/60/56 59/56/52
f 60/60/56 48/28/28 15/61/57
f 61/62/58 19/63/59 58/58/54
f 16/64/60 15/61/57 48/28/28
f 9/38/37 16/64/60 65/65/61
f 16/64/60 9/38/37 62/66/62
f 9/42/37 17/67/63 62/68/62
f 62/68/62 17/67/63 63/69/64
f 94/70/65 63/69/64 17/67/63
f 63/69/64 64/71/66 62/68/62
f 18/72/67 64/71/66 94/70/65
f 64/71/66 18/72/67 19/73/59
f 13/50/46 18/72/67 12/46/42
f 19/73/59 18/72/67 13/50/46
f 56/74/47 19/73/59 13/50/46
f 9/42/37 53/41/39 17/67/63
f 66/57/53 5/75/68 102/59/55
f 66/57/53 21/76/69 6/25/25
f 67/54/50 21/76/69 66/57/53
f 21/76/69 46/23/23 6/25/25
f 21/76/69 92/77/70 46/23/23
f 23/78/71 92/77/70 22/79/72
f 44/22/22 92/77/70 23/78/71
f 43/21/21 44/22/22 68/80/73
f 68/80/73 24/16/16 103/15/15
f 68/80/73 80/81/74 89/82/75
f 26/83/76 25/84/77 69/85/78
f 25/84/77 89/82/75 69/85/78
f 90/86/79 91/87/80 69/85/78
f 69/85/78 89/82/75 90/86/79
f 90/86/79 89/82/75 80/81/74
f 87/88/81 71/89/82 27/90/83
f 27/90/83 71/89/82 70/91/84
f 73/92/85 72/93/86 2/11/11
f 2/11/11 72/93/86 105/94/87
f 26/95/76 73/92/85 2/11/11
f 72/93/86 87/88/81 105/94/87
f 87/88/81 74/3/3 105/94/87
f 74/3/3 28/96/88 29/97/89
f 28/96/88 74/3/3 87/88/81
f 74/3/3 29/97/89 86/1/1
f 75/98/90 30/99/91 28/96/88
f 76/100/92 83/101/93 93/102/48
f 30/99/91 83/101/93 76/100/92
f 83/103/93 77/104/94 20/105/95
f 20/105/95 77/104/94 81/106/96
f 79/107/97 32/108/98 78/109/99
f 32/108/98 31/110/100 77/104/94
f 32/111/98 88/112/101 78/113/99
f 91/87/80 90/86/79 78/109/99
f 78/109/99 80/81/74 79/107/97
f 23/78/71 22/79/72 79/107/97
f 22/79/72 82/114/102 31/110/100
f 82/114/102 81/106/96 31/110/100
f 28/96/88 87/88/81 75/98/90
f 70/91/84 87/88/81 27/90/83
f 20/105/95 81/106/96 67/54/50
f 106/6/6 95/7/7 11/45/41
f 35/8/8 106/6/6 96/115/103
f 97/116/104 98/34/33 3/13/13
f 98/34/33 100/18/18 3/13/13
f 49/29/29 45/24/24 4/19/19
f 105/94/87 74/3/3 33/2/2
f 54/47/43 33/2/2 86/1/1
f 33/2/2 54/47/43 95/7/7
f 34/5/5 33/2/2 106/6/6
f 35/8/8 1/32/12 36/4/4
f 39/14/14 3/13/13 40/117/105 103/15/15
f 105/94/87 36/4/4 37/33/32
f 105/94/87 33/2/2 36/4/4
f 2/11/11 105/94/87 37/33/32
f 38/9/9 2/11/11 37/33/32
f 2/11/11 104/10/10 26/95/76
f 25/84/77 104/118/10 39/14/14
f 39/14/14 104/118/10 38/119/9
f 39/14/14 38/119/9 1/12/12
f 47/26/26 48/28/28 102/59/55 5/75/68
f 25/84/77 39/14/14 24/16/16
f 3/13/13 100/18/18 40/117/105
f 41/17/17 40/117/105 100/18/18
f 40/117/105 41/17/17 43/21/21
f 42/20/20 4/19/19 45/24/24
f 5/75/68 6/25/25 47/26/26
f 94/70/65 53/41/39 11/45/41 12/46/42
f 7/27/27 47/26/26 49/29/29
f 101/30/30 7/27/27 49/29/29
f 51/35/34 52/39/38 65/65/61
f 50/31/31 51/35/34 65/65/61
f 8/37/36 52/39/38 51/35/34
f 51/35/34 98/34/33 99/36/35
f 8/40/36 10/44/40 53/41/39
f 106/6/6 10/44/40 96/115/103
f 10/44/40 99/43/35 96/115/103
f 10/44/40 106/6/6 11/45/41
f 57/53/49 66/57/53 102/59/55 59/56/52
f 54/47/43 11/45/41 95/7/7
f 55/48/44 13/50/46 12/46/42
f 86/1/1 85/49/45 54/47/43
f 55/48/44 54/47/43 85/49/45
f 56/74/47 85/49/45 93/102/48
f 56/74/47 13/50/46 85/49/45
f 85/49/45 76/100/92 93/102/48
f 57/53/49 14/55/51 56/51/47
f 59/56/52 58/58/54 14/55/51
f 16/64/60 48/28/28 7/27/27 101/30/30
f 58/58/54 19/63/59 56/51/47
f 58/58/54 59/56/52 60/60/56
f 60/60/56 61/62/58 58/58/54
f 60/60/56 15/61/57 61/62/58
f 61/62/58 15/61/57 62/66/62 64/120/66
f 70/91/84 71/89/82 69/121/78 91/122/80
f 64/120/66 19/63/59 61/62/58
f 16/64/60 62/66/62 15/61/57
f 63/69/64 94/70/65 64/71/66
f 94/70/65 12/46/42 18/72/67
f 17/67/63 53/41/39 94/70/65
f 9/38/37 65/65/61 52/39/38
f 101/30/30 50/31/31 16/64/60
f 65/65/61 16/64/60 50/31/31
f 93/52/48 20/105/95 67/54/50
f 6/25/25 5/75/68 66/57/53
f 21/76/69 82/114/102 92/77/70
f 44/22/22 46/23/23 92/77/70
f 68/80/73 44/22/22 23/78/71
f 68/80/73 23/78/71 80/81/74
f 24/16/16 68/80/73 89/82/75
f 24/16/16 89/82/75 25/84/77
f 26/83/76 104/118/10 25/84/77
f 71/89/82 73/92/85 26/95/76 69/121/78
f 91/122/80 88/112/101 70/91/84
f 87/88/81 73/92/85 71/89/82
f 88/112/101 30/99/91 75/98/90 70/91/84
f 72/93/86 73/92/85 87/88/81
f 84/123/106 29/97/89 28/96/88
f 28/96/88 30/99/91 76/100/92
f 32/108/98 79/107/97 22/79/72 31/110/100
f 20/105/95 93/52/48 83/103/93
f 83/101/93 30/99/91 32/111/98
f 83/103/93 32/108/98 77/104/94
f 77/104/94 31/110/100 81/106/96
f 103/15/15 40/117/105 43/21/21 68/80/73
f 88/112/101 91/122/80 78/113/99
f 32/111/98 30/99/91 88/112/101
f 78/109/99 90/86/79 80/81/74
f 23/78/71 79/107/97 80/81/74
f 82/114/102 21/76/69 81/106/96
f 22/79/72 92/77/70 82/114/102
f 28/96/88 76/100/92 84/123/106
f 85/49/45 84/123/106 76/100/92
f 85/49/45 86/1/1 84/123/106
f 86/1/1 29/97/89 84/123/106
f 75/98/90 87/88/81 70/91/84
f 67/54/50 81/106/96 21/76/69
f 97/116/104 35/124/8 96/125/103
f 96/125/103 99/36/35 97/116/104
f 97/116/104 99/36/35 98/34/33
f 3/13/13 1/12/12 97/116/104
f 35/124/8 97/116/104 1/12/12
