# Blender 5.1.1
# www.blender.org
mtllib spike3.mtl
o Cube
v 0.589351 -0.448551 -0.589351
v 1.000000 0.123424 -1.000000
v -0.589351 -0.448551 0.589351
v 0.726321 0.123424 0.726321
v -0.450772 2.109306 0.462576
v -0.726321 0.123424 -0.726321
v -0.428058 -0.448551 -0.428058
v -1.000000 0.123424 1.000000
v 0.428058 -0.448551 0.428058
vn 0.8482 -0.5124 0.1345
vn 0.1528 0.2186 0.9638
vn -0.9624 0.2249 -0.1526
vn -0.8482 -0.5124 -0.1345
vn 0.8446 0.5184 0.1339
vn -0.1335 0.5226 -0.8420
vn -0.0000 -1.0000 -0.0000
vn -0.1345 -0.5124 -0.8482
vn 0.1345 -0.5124 0.8482
vt 0.375000 0.500000
vt 0.375000 0.750000
vt 0.625000 1.000000
vt 0.375000 1.000000
vt 0.375000 0.000000
vt 0.625000 0.250000
vt 0.375000 0.250000
vt 0.625000 0.750000
vt 0.625000 0.500000
vt 0.125000 0.500000
vt 0.125000 0.750000
s 0
usemtl Material
f 2/1/1 4/2/1 9/2/1 1/1/1
f 4/2/2 5/3/2 8/4/2
f 8/5/3 5/6/3 6/7/3
f 8/5/4 6/7/4 7/7/4 3/5/4
f 2/1/5 5/8/5 4/2/5
f 6/7/6 5/9/6 2/1/6
f 7/10/7 1/1/7 9/2/7 3/11/7
f 6/7/8 2/1/8 1/1/8 7/7/8
f 4/2/9 8/4/9 3/4/9 9/2/9
