# Blender 5.1.1
# www.blender.org
mtllib spike1.mtl
o Cube.001
v 1.000000 -0.076336 -1.000000
v -1.000000 -0.076335 -1.000000
v 0.368466 -0.076336 1.848541
v 0.242229 -1.390184 0.872631
v -0.422982 -1.390183 -0.512045
v 0.204118 11.392258 1.009220
v 0.549218 -1.390184 -0.512045
v 0.705331 5.384321 0.116470
v 0.591879 6.983908 0.392070
v -0.493933 5.382940 0.113292
v -0.324013 6.982825 0.389038
v 0.298225 7.311735 1.676386
v 0.321360 5.812437 1.803178
vn 0.9722 -0.0898 0.2164
vn 0.9461 -0.2467 0.2098
vn 0.9702 -0.1101 0.2158
vn -0.0000 -1.0000 -0.0000
vn -0.0000 -0.3482 -0.9374
vn -0.8961 -0.1057 0.4311
vn -0.8775 -0.2288 0.4215
vn -0.8974 -0.0907 0.4318
vn -0.9032 0.0319 0.4281
vn -0.9016 0.0052 0.4326
vn -0.9019 0.0104 0.4318
vn -0.9034 0.0362 0.4272
vn 0.0029 0.1551 -0.9879
vn 0.0018 0.1855 -0.9826
vn 0.0017 0.1859 -0.9826
vn 0.0029 0.1555 -0.9878
vn 0.9763 0.0457 0.2113
vn 0.9762 0.0224 0.2158
vn 0.9761 0.0175 0.2165
vn 0.9763 0.0416 0.2123
vn 0.0031 0.1389 -0.9903
vn 0.0009 0.2000 -0.9798
vn 0.9763 0.0567 0.2088
vn -0.9041 0.0486 0.4246
vt 0.241057 0.864871
vt 0.293032 0.979503
vt 0.401571 0.999719
vt 0.464341 0.906460
vt 0.619369 0.094024
vt 0.693254 0.110405
vt 0.693254 -0.000000
vt 0.464341 0.888966
vt 0.489965 0.992381
vt 0.565324 0.999335
vt 0.619369 0.903273
vt 0.000000 0.909599
vt 0.073134 1.000000
vt 0.190312 0.976149
vt 0.241057 0.860533
vt 0.008267 0.347634
vt 0.008514 0.474462
vt 0.144969 0.412607
vt 0.112230 0.300377
vt 0.546699 0.340622
vt 0.526420 0.464579
vt 0.619369 0.473274
vt 0.617686 0.347267
vt 0.357996 0.302371
vt 0.327560 0.415188
vt 0.453842 0.472556
vt 0.454147 0.346194
vt 0.608387 -0.000000
vt 0.464341 -0.000000
vt -0.000000 0.000000
s 1
usemtl Material
f 3/1/1 4/2/2 7/3/2 1/4/3
f 5/5/4 7/6/4 4/7/4
f 1/8/5 7/9/5 5/10/5 2/11/5
f 2/12/6 5/13/7 4/14/7 3/15/8
f 11/16/9 10/17/10 13/18/11 12/19/12
f 9/20/13 8/21/14 10/22/15 11/23/16
f 12/24/17 13/25/18 8/26/19 9/27/20
f 11/23/16 6/28/21 9/20/13
f 2/11/22 10/22/15 8/21/14 1/8/22
f 9/27/20 6/29/23 12/24/17
f 1/4/3 8/26/19 13/25/18 3/1/1
f 12/19/12 6/30/24 11/16/9
f 3/15/8 13/18/11 10/17/10 2/12/6
