# Blender 5.1.1
# www.blender.org
mtllib spike2.mtl
o Cube
v 0.909039 0.291819 -0.166614
v -0.422516 0.315665 -0.185632
v 0.456570 0.006657 1.701383
v 0.369943 -0.755902 0.922920
v -0.057380 -0.605693 0.005642
v 0.474835 7.639691 2.328063
v 0.589888 -0.617284 0.014887
v 0.756615 3.773011 1.127132
v 0.694478 4.798364 1.472004
v -0.041807 3.786727 1.113495
v 0.084720 4.808884 1.461189
v 0.487918 4.885567 2.347882
v 0.486437 3.885921 2.277199
v -1.000454 0.079309 0.984402
v 1.999657 0.079309 0.491241
v -0.953408 0.079309 -2.505044
v -0.455606 -1.234539 -1.394038
v 0.979878 -1.234539 0.062456
v -0.049090 13.364557 1.182395
v -0.478475 -1.234539 0.302181
v -1.015050 5.625318 -0.611873
v -1.018455 4.812034 -0.450152
v -0.987807 7.300696 -0.681087
v -1.004139 6.511369 -0.694103
v -0.914847 8.660823 -0.456981
v -0.971363 7.859240 -0.608103
v -0.695513 10.281412 -0.003401
v -0.816055 9.528325 -0.240412
v 0.886819 5.641213 -0.932356
v 1.033638 4.830216 -0.794744
v 0.640137 7.314768 -0.961388
v 0.746636 6.526317 -0.991730
v 0.487083 8.688841 -0.703396
v 0.576388 7.890175 -0.875952
v 0.304197 10.300937 -0.182864
v 0.389670 9.551616 -0.455353
v -0.771897 10.315063 -1.336455
v -0.658084 10.927947 -0.903374
v -0.919595 8.902306 -2.068108
v -0.865622 9.589070 -1.753893
v -0.971490 7.103476 -2.623134
v -0.954605 7.841310 -2.441042
v -0.985060 5.522553 -2.779203
v -0.982334 6.277802 -2.743546
v 0.758685 -0.147135 0.308851
v 0.913626 -0.656325 1.412549
v -0.329038 -0.608529 0.201798
v -0.414437 -1.153790 1.157122
v -1.034801 1.807627 1.961489
v -0.617441 -0.349889 1.441189
v -0.771649 0.365058 1.643811
v -0.306427 0.764634 1.307443
v 0.142705 0.303211 0.891651
v 0.243309 -0.026976 1.606919
v -0.244831 0.562454 1.745149
v -0.562141 0.003856 0.821945
v -0.737824 0.581586 1.264954
v -0.057897 -0.071388 -0.262813
v -0.117603 -1.149921 -1.764470
v 1.713761 -0.280681 -0.104396
v 2.023439 -1.278458 -1.401568
v 1.705513 3.003389 -3.377221
v 1.985129 -0.119715 -2.039137
v 1.914533 0.913549 -2.529093
v 1.088993 1.392756 -2.077630
v 0.636156 0.663573 -1.301628
v 0.597263 -0.035745 -2.274732
v 1.065196 0.964620 -2.673085
v 1.784354 0.527506 -1.198385
v 1.791667 1.309676 -2.014742
v 0.254470 -0.873170 1.299166
v 0.488397 -0.724318 0.290197
v 1.256934 -1.010204 1.032361
v 1.386879 -0.904165 0.349623
v 1.568094 1.332516 0.976742
v -0.712684 -1.068841 0.599734
v -0.788310 -1.646324 -0.574842
v -0.044238 -0.773843 0.377854
v 0.094248 -0.907564 -0.097702
v -2.000296 1.767341 -0.125239
v -1.126300 -0.684441 -0.551929
v -0.969260 -0.789658 -1.353405
v -0.506937 -0.239406 -0.862458
v -0.418086 -0.324853 -1.401820
v -1.729268 0.937281 -1.625510
vn 0.9669 -0.1395 0.2137
vn 0.9385 -0.2930 0.1826
vn 0.9646 -0.1595 0.2100
vn -0.0155 -0.9879 -0.1546
vn 0.0104 -0.1993 -0.9799
vn -0.9048 -0.1549 0.3967
vn -0.8879 -0.2754 0.3685
vn -0.9059 -0.1402 0.3997
vn -0.9097 -0.0184 0.4150
vn -0.9086 -0.0455 0.4153
vn -0.9088 -0.0402 0.4153
vn -0.9098 -0.0139 0.4147
vn 0.0220 0.3056 -0.9519
vn 0.0212 0.3348 -0.9420
vn 0.0212 0.3352 -0.9419
vn 0.0220 0.3060 -0.9518
vn 0.9732 -0.0049 0.2298
vn 0.9726 -0.0287 0.2306
vn 0.9725 -0.0336 0.2305
vn 0.9731 -0.0091 0.2301
vn 0.0220 0.2900 -0.9568
vn 0.0205 0.3488 -0.9370
vn 0.9734 0.0063 0.2289
vn -0.9103 -0.0013 0.4140
vn -0.9904 -0.1372 -0.0142
vn -0.9315 -0.3636 -0.0126
vn -0.9842 -0.1764 -0.0139
vn -0.0000 -1.0000 -0.0000
vn 0.1480 -0.4088 0.9005
vn 0.6994 -0.1559 -0.6976
vn 0.6776 -0.3080 -0.6678
vn 0.7009 -0.1356 -0.7002
vn 0.6947 0.2949 -0.6560
vn 0.6948 0.2995 -0.6538
vn 0.6964 0.3373 -0.6334
vn 0.6962 0.3347 -0.6351
vn 0.6946 0.2605 -0.6705
vn 0.6947 0.2541 -0.6730
vn 0.6959 0.2171 -0.6845
vn 0.6955 0.2241 -0.6827
vn 0.7032 0.0516 -0.7091
vn 0.7028 0.0401 -0.7103
vn 0.7038 -0.0200 -0.7102
vn 0.7031 -0.0061 -0.7111
vn 0.7035 0.1019 -0.7033
vn 0.7033 0.1103 -0.7023
vn 0.6996 0.1721 -0.6934
vn 0.7001 0.1664 -0.6944
vn 0.1732 -0.2858 0.9425
vn 0.1732 -0.2850 0.9428
vn 0.1718 -0.3493 0.9211
vn 0.1718 -0.3498 0.9209
vn 0.1728 -0.2212 0.9598
vn 0.1729 -0.2224 0.9595
vn 0.1714 -0.1599 0.9721
vn 0.1714 -0.1583 0.9724
vn 0.1633 0.1462 0.9757
vn 0.1635 0.1431 0.9761
vn 0.1585 0.2417 0.9573
vn 0.1584 0.2444 0.9567
vn 0.1673 0.0377 0.9852
vn 0.1672 0.0412 0.9851
vn 0.1698 -0.0690 0.9831
vn 0.1698 -0.0728 0.9828
vn -0.9911 0.1234 0.0489
vn -0.9918 0.1190 0.0459
vn -0.9856 0.1538 0.0699
vn -0.9851 0.1565 0.0718
vn -0.9963 0.0831 0.0221
vn -0.9957 0.0894 0.0262
vn -0.9985 0.0549 0.0038
vn -0.9989 0.0470 -0.0013
vn -0.9999 0.0065 -0.0133
vn -0.9999 0.0086 -0.0129
vn -0.9999 -0.0013 -0.0143
vn -0.9999 -0.0040 -0.0145
vn -0.9998 0.0184 -0.0114
vn -0.9998 0.0170 -0.0116
vn -0.9996 0.0280 -0.0102
vn -0.9995 0.0288 -0.0101
vn 0.1557 0.2873 0.9451
vn -0.9813 0.1735 0.0838
vn 0.1704 -0.3846 0.9072
vn 0.6977 0.3572 -0.6210
vn 0.3880 -0.8149 -0.4304
vn -0.1404 0.5258 -0.8390
vn -0.1408 0.5266 -0.8384
vn -0.1891 0.6220 -0.7598
vn -0.1865 0.6170 -0.7645
vn -0.9731 -0.1516 -0.1735
vn -0.9734 -0.1505 -0.1729
vn -0.9683 -0.1696 -0.1834
vn -0.9683 -0.1695 -0.1833
vn -0.0862 -0.2633 0.9609
vn -0.0864 -0.2628 0.9610
vn -0.0624 -0.3190 0.9457
vn -0.0612 -0.3219 0.9448
vn 0.8122 0.5647 0.1465
vn 0.8085 0.5693 0.1491
vn 0.7355 0.6485 0.1959
vn 0.7356 0.6485 0.1959
vn -0.0514 -0.3442 0.9375
vn -0.9757 -0.1410 -0.1677
vn -0.9660 -0.1776 -0.1877
vn -0.0995 -0.2313 0.9678
vn -0.1132 0.4699 -0.8754
vn 0.7009 0.6800 0.2153
vn 0.8476 0.5170 0.1195
vn -0.2069 0.6562 -0.7257
vn -0.1465 -0.8007 0.5809
vn 0.0149 0.6808 0.7324
vn 0.0151 0.6816 0.7316
vn 0.0342 0.7712 0.6357
vn 0.0332 0.7666 0.6413
vn 0.9821 0.1376 0.1286
vn 0.9821 0.1386 0.1279
vn 0.9825 0.1210 0.1415
vn 0.1306 -0.3937 -0.9099
vn 0.1307 -0.3932 -0.9101
vn 0.1229 -0.4502 -0.8844
vn 0.1225 -0.4531 -0.8830
vn -0.9366 0.3013 -0.1791
vn -0.9343 0.3062 -0.1828
vn -0.8862 0.3923 -0.2465
vn -0.8862 0.3922 -0.2465
vn 0.1192 -0.4756 -0.8715
vn 0.9817 0.1473 0.1210
vn 0.9826 0.1135 0.1473
vn 0.1347 -0.3610 -0.9228
vn 0.0044 0.6269 0.7791
vn -0.8617 0.4278 -0.2730
vn -0.9573 0.2514 -0.1425
vn 0.0415 0.8023 0.5954
vn -0.8603 0.4938 -0.1266
vn 0.1154 0.2595 -0.9588
vn 0.9780 -0.1259 0.1666
vn 0.2558 -0.0110 0.9667
vn -0.1812 -0.9660 -0.1845
vn -0.9067 -0.3524 0.2317
vn 0.3064 0.2304 -0.9236
vn 0.7858 0.6159 0.0557
vn 0.1704 0.3159 0.9334
vn 0.4745 -0.8017 0.3636
vn -0.9012 -0.4158 -0.1220
vn 0.0325 -0.1416 -0.9894
vn 0.6935 0.7205 0.0001
vn 0.0168 0.5563 0.8308
vn 0.6399 -0.7357 0.2220
vt 0.879337 0.435078
vt 0.860705 0.492148
vt 0.834345 0.499218
vt 0.825110 0.449623
vt 0.399257 0.862243
vt 0.437291 0.862243
vt 0.425447 0.916465
vt 0.806274 0.503670
vt 0.767363 0.458781
vt 0.767363 0.456387
vt 0.735625 0.503352
vt 0.678860 0.493097
vt 0.650587 0.435291
vt 0.761978 0.174344
vt 0.761817 0.237977
vt 0.695659 0.208927
vt 0.711585 0.152148
vt 0.795870 0.171504
vt 0.804113 0.234175
vt 0.769415 0.239739
vt 0.769356 0.175758
vt 0.817607 0.152382
vt 0.832727 0.209148
vt 0.767363 -0.000000
vt 0.767363 -0.000000
vt 0.449944 0.785935
vt 0.379291 0.862243
vt 0.280580 0.859291
vt 0.246876 0.779863
vt 0.949269 0.497579
vt 0.879337 0.446310
vt 0.949269 0.377893
vt 0.650587 0.760804
vt 0.628070 0.846395
vt 0.542246 0.860358
vt 0.474030 0.789529
vt 0.246876 0.792353
vt 0.180526 0.860866
vt 0.060519 0.852405
vt 0.000000 0.774946
vt 0.181933 0.230396
vt 0.100302 0.178295
vt 0.125451 0.142400
vt 0.192717 0.185274
vt 0.076142 0.220895
vt 0.172151 0.282145
vt 0.165383 0.329869
vt 0.058040 0.261261
vt 0.016328 0.415229
vt 0.166313 0.463493
vt 0.174557 0.511517
vt 0.011438 0.459197
vt 0.161863 0.410988
vt 0.025324 0.366988
vt 0.036701 0.323719
vt 0.162066 0.364130
vt 0.545481 0.226449
vt 0.474203 0.236782
vt 0.474030 0.190647
vt 0.533139 0.182082
vt 0.474882 0.289372
vt 0.557746 0.277440
vt 0.567384 0.324456
vt 0.475929 0.337595
vt 0.478230 0.470467
vt 0.590351 0.453113
vt 0.599040 0.498762
vt 0.478060 0.517418
vt 0.581074 0.402694
vt 0.477840 0.418672
vt 0.476967 0.372025
vt 0.572982 0.357149
vt 0.395119 0.182295
vt 0.330435 0.226601
vt 0.316738 0.182133
vt 0.369842 0.145723
vt 0.342602 0.277805
vt 0.419160 0.225530
vt 0.436921 0.266356
vt 0.350709 0.325099
vt 0.348057 0.456403
vt 0.473018 0.421747
vt 0.474030 0.466220
vt 0.337483 0.503950
vt 0.467102 0.373001
vt 0.354042 0.404455
vt 0.354290 0.358042
vt 0.457414 0.329328
vt 0.246876 -0.000000
vt 0.475161 0.000000
vt 0.246876 0.000000
vt 0.181767 0.860866
vt 0.180699 0.941010
vt 0.118883 0.941010
vt 0.113253 0.875912
vt 0.790843 0.827918
vt 0.810815 0.818961
vt 0.814050 0.850873
vt 0.781407 0.865525
vt 0.908540 0.284268
vt 0.933662 0.286040
vt 0.934681 0.328293
vt 0.893625 0.325388
vt 0.878565 0.837430
vt 0.909872 0.828479
vt 0.928707 0.868594
vt 0.877540 0.883199
vt 0.831363 0.827929
vt 0.847626 0.865515
vt 0.869514 0.937903
vt 0.948432 0.915331
vt 0.942658 0.204159
vt 0.879337 0.373389
vt 0.942658 0.377893
vt 0.869514 0.750185
vt 0.804324 0.750185
vt 0.817717 0.884097
vt 0.869514 0.906672
vt 0.767363 0.906672
vt 0.521315 0.987799
vt 0.529636 0.860358
vt 0.593934 0.867841
vt 0.593934 0.972144
vt 0.685269 0.818079
vt 0.719427 0.840244
vt 0.721376 0.889896
vt 0.665554 0.853692
vt 0.832137 0.623330
vt 0.860866 0.611523
vt 0.861899 0.663607
vt 0.814948 0.682892
vt 0.803012 0.592026
vt 0.767363 0.631710
vt 0.680140 0.620334
vt 0.723267 0.620355
vt 0.741331 0.678584
vt 0.670865 0.678566
vt 0.474030 0.947886
vt 0.479452 0.865275
vt 0.869987 0.503670
vt 0.797572 0.750185
vt 0.869987 0.720471
vt 0.736704 0.744468
vt 0.650587 0.744468
vt 0.759304 0.744468
vt 0.682978 0.503352
vt 0.650587 0.892655
vt 0.736704 0.948548
vt 0.593934 0.974676
vt 0.649705 0.860358
vt 0.649705 0.988857
vt -0.000000 1.000000
vt -0.000000 0.860866
vt 0.042734 0.991197
vt 0.062066 0.980589
vt 0.942658 0.330327
vt 0.998852 0.204159
vt 0.998852 0.354574
vt 0.294911 0.866348
vt 0.347388 0.862243
vt 0.347388 0.903565
vt 0.292495 0.927769
vt 0.879337 0.164508
vt 0.945446 0.000000
vt 0.945446 0.204159
vt 0.869987 0.714971
vt 0.869987 0.503670
vt 0.932850 0.683714
vt 0.947791 0.674510
vt 0.945445 0.180948
vt 0.945445 0.000000
vt 0.987661 0.169058
vt 0.347388 0.862243
vt 0.399257 0.886957
vt 0.388960 0.911824
vt 0.347388 0.923565
vt 0.181767 0.978467
vt 0.181767 0.860866
vt 0.222915 0.957912
vt 0.062067 0.968423
vt 0.093764 0.860866
vt 0.093786 0.963824
vt 0.113253 0.968423
vt 0.246876 0.950143
vt 0.268728 0.862243
vt 0.292495 0.950143
vt 0.437291 0.876599
vt 0.468892 0.862243
vt 0.469874 0.892689
vt 0.437291 0.922375
s 1
usemtl Material
f 3/1/1 4/2/2 7/3/2 1/4/3
f 5/5/4 7/6/4 4/7/4
f 1/4/5 7/3/5 5/8/5 2/9/5
f 2/10/6 5/11/7 4/12/7 3/13/8
f 11/14/9 10/15/10 13/16/11 12/17/12
f 9/18/13 8/19/14 10/20/15 11/21/16
f 12/22/17 13/23/18 8/19/19 9/18/20
f 11/21/16 6/24/21 9/18/13
f 2/9/22 10/20/15 8/19/14 1/4/22
f 9/18/20 6/24/23 12/22/17
f 1/4/3 8/19/19 13/23/18 3/1/1
f 12/17/12 6/25/24 11/14/9
f 3/13/8 13/16/11 10/15/10 2/10/6
usemtl Material.001
f 16/26/25 17/27/26 20/28/26 14/29/27
f 18/30/28 20/31/28 17/32/28
f 14/33/29 20/34/29 18/35/29 15/36/29
f 15/37/30 18/38/31 17/39/31 16/40/32
f 36/41/33 37/42/34 38/43/35 35/44/36
f 40/45/37 33/46/38 34/47/39 39/48/40
f 44/49/41 29/50/42 30/51/43 43/52/44
f 32/53/45 41/54/46 42/55/47 31/56/48
f 28/57/49 36/58/50 35/59/51 27/60/52
f 33/61/53 25/62/54 26/63/55 34/64/56
f 29/65/57 21/66/58 22/67/59 30/68/60
f 24/69/61 32/70/62 31/71/63 23/72/64
f 37/73/65 28/74/66 27/75/67 38/76/68
f 25/77/69 40/78/70 39/79/71 26/80/72
f 21/81/73 44/82/74 43/83/75 22/84/76
f 41/85/77 24/86/78 23/87/79 42/88/80
f 15/36/81 30/68/60 22/67/59 14/33/81
f 29/65/57 32/70/62 24/69/61 21/66/58
f 21/81/73 24/86/78 41/85/77 44/82/74
f 14/29/27 22/84/76 43/83/75 16/26/25
f 39/79/71 42/88/80 23/87/79 26/80/72
f 26/63/55 23/72/64 31/71/63 34/64/56
f 37/73/65 40/78/70 25/77/69 28/74/66
f 28/57/49 25/62/54 33/61/53 36/58/50
f 27/75/67 19/89/82 38/76/68
f 35/59/51 19/90/83 27/60/52
f 16/40/32 43/52/44 30/51/43 15/37/30
f 44/49/41 41/54/46 32/53/45 29/50/42
f 34/47/39 31/56/48 42/55/47 39/48/40
f 36/41/33 33/46/38 40/45/37 37/42/34
f 38/43/35 19/91/84 35/44/36
usemtl 
f 46/92/85 48/93/85 47/94/85 45/95/85
f 57/96/86 52/97/87 53/98/88 56/99/89
f 51/100/90 57/101/91 56/102/92 50/103/93
f 55/104/94 51/105/95 50/106/96 54/107/97
f 52/97/98 55/108/99 54/109/100 53/98/101
f 46/110/102 54/107/97 50/106/96 48/111/102
f 51/100/90 49/112/103 57/101/91
f 48/113/104 50/103/93 56/102/92 47/114/104
f 55/104/94 49/115/105 51/105/95
f 57/96/86 49/116/106 52/97/87
f 45/117/107 53/98/101 54/109/100 46/118/107
f 52/97/98 49/116/108 55/108/99
f 47/119/109 56/99/89 53/98/88 45/117/109
f 59/120/110 61/121/110 60/122/110 58/123/110
f 70/124/111 65/125/112 66/126/113 69/127/114
f 64/128/115 70/129/116 69/130/117 63/131/117
f 68/132/118 64/128/119 63/131/120 67/133/121
f 65/134/122 68/135/123 67/136/124 66/137/125
f 59/120/126 67/138/121 63/139/120 61/121/126
f 64/128/115 62/140/127 70/129/116
f 61/141/128 63/131/117 69/130/117 60/142/128
f 68/132/118 62/140/129 64/128/119
f 70/124/111 62/143/130 65/125/112
f 58/144/131 66/137/125 67/136/124 59/145/131
f 65/134/122 62/146/132 68/135/123
f 60/147/133 69/127/114 66/126/113 58/148/133
f 71/149/134 75/150/134 72/151/134
f 72/152/135 75/153/135 74/154/135
f 74/154/136 75/153/136 73/155/136
f 73/156/137 75/157/137 71/158/137
f 72/159/138 74/160/138 73/161/138 71/162/138
f 76/163/139 80/164/139 77/165/139
f 77/166/140 80/167/140 79/168/140
f 79/168/141 80/167/141 78/169/141
f 78/170/142 80/171/142 76/172/142
f 77/173/143 79/174/143 78/175/143 76/176/143
f 81/177/144 85/178/144 82/179/144
f 82/180/145 85/181/145 84/182/145
f 84/182/146 85/181/146 83/183/146
f 83/184/147 85/185/147 81/186/147
f 82/187/148 84/188/148 83/189/148 81/190/148
